<?xml version="1.0" encoding="UTF-8" standalone="no"?><!DOCTYPE svg PUBLIC "-//W3C//DTD SVG 1.1//EN" "http://www.w3.org/Graphics/SVG/1.1/DTD/svg11.dtd"><!-- Generated by graphviz version 2.40.1 (20161225.0304)
 --><!-- Title: G Pages: 1 --><svg xmlns="http://www.w3.org/2000/svg" xmlns:xlink="http://www.w3.org/1999/xlink" width="785pt" height="182pt" viewBox="0.00 0.00 785.50 181.83">
<g id="graph0" class="graph" transform="scale(1 1) rotate(0) translate(4 177.8313)">
<title>G</title>
<polygon fill="#ffffff" stroke="transparent" points="-4,4 -4,-177.8313 781.4955,-177.8313 781.4955,4 -4,4"/>
<!-- a602899216992 -->
<g id="node1" class="node">
<title>a602899216992</title>
<ellipse fill="none" stroke="#000000" cx="696.9021" cy="-67.4156" rx="80.6868" ry="29.3315"/>
<text text-anchor="middle" x="696.9021" y="-71.6156" font-family="Times,serif" font-size="14.00" fill="#000000">(a + b) * c / d </text>
<text text-anchor="middle" x="696.9021" y="-54.8156" font-family="Times,serif" font-size="14.00" fill="#000000">data:9324, grad:1</text>
</g>
<!-- a602899216496 -->
<g id="node2" class="node">
<title>a602899216496</title>
<ellipse fill="none" stroke="#000000" cx="277.78" cy="-144.4156" rx="80.6868" ry="29.3315"/>
<text text-anchor="middle" x="277.78" y="-148.6156" font-family="Times,serif" font-size="14.00" fill="#000000">c </text>
<text text-anchor="middle" x="277.78" y="-131.8156" font-family="Times,serif" font-size="14.00" fill="#000000">data:42, grad:444</text>
</g>
<!-- a602899216536 -->
<g id="node5" class="node">
<title>a602899216536</title>
<ellipse fill="none" stroke="#000000" cx="487.3411" cy="-106.4156" rx="92.9354" ry="29.3315"/>
<text text-anchor="middle" x="487.3411" y="-110.6156" font-family="Times,serif" font-size="14.00" fill="#000000">(a + b) * c </text>
<text text-anchor="middle" x="487.3411" y="-93.8156" font-family="Times,serif" font-size="14.00" fill="#000000">data:18648, grad:0.5</text>
</g>
<!-- a602899216496&#45;&gt;a602899216536 -->
<g id="edge4" class="edge">
<title>a602899216496-&gt;a602899216536</title>
<path fill="none" stroke="#000000" d="M350.1925,-131.285C365.1379,-128.5749 381.0575,-125.6882 396.5608,-122.877"/>
<polygon fill="#000000" stroke="#000000" points="397.459,-126.2712 406.6741,-121.0431 396.21,-119.3836 397.459,-126.2712"/>
</g>
<!-- a602899216464 -->
<g id="node3" class="node">
<title>a602899216464</title>
<ellipse fill="none" stroke="#000000" cx="80.5933" cy="-106.4156" rx="80.6868" ry="29.3315"/>
<text text-anchor="middle" x="80.5933" y="-110.6156" font-family="Times,serif" font-size="14.00" fill="#000000">b </text>
<text text-anchor="middle" x="80.5933" y="-93.8156" font-family="Times,serif" font-size="14.00" fill="#000000">data:321, grad:42</text>
</g>
<!-- a602899216528 -->
<g id="node6" class="node">
<title>a602899216528</title>
<ellipse fill="none" stroke="#000000" cx="277.78" cy="-67.4156" rx="80.6868" ry="29.3315"/>
<text text-anchor="middle" x="277.78" y="-71.6156" font-family="Times,serif" font-size="14.00" fill="#000000">(a + b) </text>
<text text-anchor="middle" x="277.78" y="-54.8156" font-family="Times,serif" font-size="14.00" fill="#000000">data:444, grad:42</text>
</g>
<!-- a602899216464&#45;&gt;a602899216528 -->
<g id="edge6" class="edge">
<title>a602899216464-&gt;a602899216528</title>
<path fill="none" stroke="#000000" d="M151.5037,-92.3908C166.2671,-89.4709 181.9317,-86.3727 197.0199,-83.3885"/>
<polygon fill="#000000" stroke="#000000" points="197.7057,-86.8208 206.8365,-81.447 196.3474,-79.9538 197.7057,-86.8208"/>
</g>
<!-- a602899216432 -->
<g id="node4" class="node">
<title>a602899216432</title>
<ellipse fill="none" stroke="#000000" cx="80.5933" cy="-29.4156" rx="80.6868" ry="29.3315"/>
<text text-anchor="middle" x="80.5933" y="-33.6156" font-family="Times,serif" font-size="14.00" fill="#000000">a </text>
<text text-anchor="middle" x="80.5933" y="-16.8156" font-family="Times,serif" font-size="14.00" fill="#000000">data:123, grad:42</text>
</g>
<!-- a602899216432&#45;&gt;a602899216528 -->
<g id="edge5" class="edge">
<title>a602899216432-&gt;a602899216528</title>
<path fill="none" stroke="#000000" d="M152.0611,-43.1882C166.3894,-45.9495 181.5465,-48.8704 196.1878,-51.6919"/>
<polygon fill="#000000" stroke="#000000" points="195.7435,-55.1706 206.2251,-53.6262 197.0681,-48.2971 195.7435,-55.1706"/>
</g>
<!-- a602899216536&#45;&gt;a602899216992 -->
<g id="edge1" class="edge">
<title>a602899216536-&gt;a602899216992</title>
<path fill="none" stroke="#000000" d="M567.7635,-91.4488C583.197,-88.5765 599.377,-85.5654 614.8608,-82.6838"/>
<polygon fill="#000000" stroke="#000000" points="615.7298,-86.0823 624.9206,-80.8116 614.449,-79.2004 615.7298,-86.0823"/>
</g>
<!-- a602899216528&#45;&gt;a602899216536 -->
<g id="edge3" class="edge">
<title>a602899216528-&gt;a602899216536</title>
<path fill="none" stroke="#000000" d="M349.6059,-80.7827C364.7681,-83.6044 380.9553,-86.6169 396.708,-89.5485"/>
<polygon fill="#000000" stroke="#000000" points="396.5102,-93.0717 406.9818,-91.4605 397.791,-86.1899 396.5102,-93.0717"/>
</g>
<!-- a602899216960 -->
<g id="node7" class="node">
<title>a602899216960</title>
<ellipse fill="none" stroke="#000000" cx="487.3411" cy="-29.4156" rx="85.5862" ry="29.3315"/>
<text text-anchor="middle" x="487.3411" y="-33.6156" font-family="Times,serif" font-size="14.00" fill="#000000">d </text>
<text text-anchor="middle" x="487.3411" y="-16.8156" font-family="Times,serif" font-size="14.00" fill="#000000">data:2, grad:18648</text>
</g>
<!-- a602899216960&#45;&gt;a602899216992 -->
<g id="edge2" class="edge">
<title>a602899216960-&gt;a602899216992</title>
<path fill="none" stroke="#000000" d="M563.2937,-43.1882C580.0375,-46.2244 597.8463,-49.4537 614.8203,-52.5316"/>
<polygon fill="#000000" stroke="#000000" points="614.2394,-55.9833 624.7035,-54.3238 615.4884,-49.0956 614.2394,-55.9833"/>
</g>
</g>
</svg>