<?xml version="1.0" encoding="UTF-8" standalone="no"?>
<!DOCTYPE svg PUBLIC "-//W3C//DTD SVG 1.1//EN"
 "http://www.w3.org/Graphics/SVG/1.1/DTD/svg11.dtd">
<!-- Generated by graphviz version 8.0.5 (20230430.1635)
 -->
<!-- Title: G Pages: 1 -->
<svg width="2527pt" height="183pt"
 viewBox="0.00 0.00 2526.50 183.00" xmlns="http://www.w3.org/2000/svg" xmlns:xlink="http://www.w3.org/1999/xlink">
<g id="graph0" class="graph" transform="scale(1 1) rotate(0) translate(4 179)">
<title>G</title>
<polygon fill="white" stroke="none" points="-4,4 -4,-179 2522.5,-179 2522.5,4 -4,4"/>
<!-- a0 -->
<g id="node1" class="node">
<title>a0</title>
<polygon fill="#ffff7f" stroke="black" points="54,-175 0,-175 0,-139 54,-139 54,-175"/>
<text text-anchor="middle" x="27" y="-151.57" font-family="Times New Roman,serif" font-size="14.00">x</text>
</g>
<!-- a4 -->
<g id="node5" class="node">
<title>a4</title>
<polygon fill="#ffff7f" stroke="black" points="151,-148 90,-148 90,-112 151,-112 151,-148"/>
<text text-anchor="middle" x="120.5" y="-124.58" font-family="Times New Roman,serif" font-size="14.00">(x &#45; mu)</text>
</g>
<!-- a0&#45;&gt;a4 -->
<g id="edge1" class="edge">
<title>a0&#45;&gt;a4</title>
<path fill="none" stroke="black" d="M54.47,-149.19C62.18,-146.91 70.8,-144.37 79.17,-141.9"/>
<polygon fill="black" stroke="black" points="79.95,-145.02 88.56,-138.84 77.97,-138.31 79.95,-145.02"/>
</g>
<!-- a1 -->
<g id="node2" class="node">
<title>a1</title>
<polygon fill="#ffff7f" stroke="black" points="54,-121 0,-121 0,-85 54,-85 54,-121"/>
<text text-anchor="middle" x="27" y="-97.58" font-family="Times New Roman,serif" font-size="14.00">mu</text>
</g>
<!-- a1&#45;&gt;a4 -->
<g id="edge2" class="edge">
<title>a1&#45;&gt;a4</title>
<path fill="none" stroke="black" d="M54.47,-110.81C62.18,-113.09 70.8,-115.63 79.17,-118.1"/>
<polygon fill="black" stroke="black" points="77.97,-121.69 88.56,-121.16 79.95,-114.98 77.97,-121.69"/>
</g>
<!-- a2 -->
<g id="node3" class="node">
<title>a2</title>
<polygon fill="#ffff7f" stroke="black" points="432.62,-94 378.62,-94 378.62,-58 432.62,-58 432.62,-94"/>
<text text-anchor="middle" x="405.62" y="-70.58" font-family="Times New Roman,serif" font-size="14.00">sigma</text>
</g>
<!-- a7 -->
<g id="node8" class="node">
<title>a7</title>
<polygon fill="#ffff7f" stroke="black" points="672.25,-140 504,-140 504,-104 672.25,-104 672.25,-140"/>
<text text-anchor="middle" x="588.12" y="-116.58" font-family="Times New Roman,serif" font-size="14.00">&#45;(x &#45; mu) * (x &#45; mu) / sigma</text>
</g>
<!-- a2&#45;&gt;a7 -->
<g id="edge7" class="edge">
<title>a2&#45;&gt;a7</title>
<path fill="none" stroke="black" d="M432.87,-82.69C451.78,-87.51 478.4,-94.29 504.22,-100.87"/>
<polygon fill="black" stroke="black" points="503.27,-104.5 513.83,-103.57 505,-97.71 503.27,-104.5"/>
</g>
<!-- a8 -->
<g id="node9" class="node">
<title>a8</title>
<polygon fill="#ffff7f" stroke="black" points="920,-117 708.25,-117 708.25,-81 920,-81 920,-117"/>
<text text-anchor="middle" x="814.12" y="-93.58" font-family="Times New Roman,serif" font-size="14.00">&#45;(x &#45; mu) * (x &#45; mu) / sigma / sigma</text>
</g>
<!-- a2&#45;&gt;a8 -->
<g id="edge9" class="edge">
<title>a2&#45;&gt;a8</title>
<path fill="none" stroke="black" d="M432.98,-77.49C485.45,-80.46 605.74,-87.27 697.06,-92.43"/>
<polygon fill="black" stroke="black" points="696.59,-95.97 706.77,-93.04 696.98,-88.98 696.59,-95.97"/>
</g>
<!-- a3 -->
<g id="node4" class="node">
<title>a3</title>
<polygon fill="#ffff7f" stroke="black" points="1103.5,-63 1049.5,-63 1049.5,-27 1103.5,-27 1103.5,-63"/>
<text text-anchor="middle" x="1076.5" y="-39.58" font-family="Times New Roman,serif" font-size="14.00">scale</text>
</g>
<!-- a10 -->
<g id="node11" class="node">
<title>a10</title>
<polygon fill="#ffff7f" stroke="black" points="1516,-90 1233,-90 1233,-54 1516,-54 1516,-90"/>
<text text-anchor="middle" x="1374.5" y="-66.58" font-family="Times New Roman,serif" font-size="14.00">scale * exp(&#45;(x &#45; mu) * (x &#45; mu) / sigma / sigma)</text>
</g>
<!-- a3&#45;&gt;a10 -->
<g id="edge11" class="edge">
<title>a3&#45;&gt;a10</title>
<path fill="none" stroke="black" d="M1103.77,-47.4C1131.08,-49.89 1176.13,-54 1221.67,-58.15"/>
<polygon fill="black" stroke="black" points="1221.35,-61.73 1231.63,-59.15 1221.99,-54.76 1221.35,-61.73"/>
</g>
<!-- a5 -->
<g id="node6" class="node">
<title>a5</title>
<polygon fill="#ffff7f" stroke="black" points="307.25,-148 187,-148 187,-112 307.25,-112 307.25,-148"/>
<text text-anchor="middle" x="247.12" y="-124.58" font-family="Times New Roman,serif" font-size="14.00">(x &#45; mu) * (x &#45; mu)</text>
</g>
<!-- a4&#45;&gt;a5 -->
<g id="edge3" class="edge">
<title>a4&#45;&gt;a5</title>
<path fill="none" stroke="black" d="M151.35,-124.14C158.84,-123.69 167.21,-123.41 175.78,-123.3"/>
<polygon fill="black" stroke="black" points="175.7,-126.8 185.69,-123.26 175.68,-119.8 175.7,-126.8"/>
</g>
<!-- a4&#45;&gt;a5 -->
<g id="edge4" class="edge">
<title>a4&#45;&gt;a5</title>
<path fill="none" stroke="black" d="M151.35,-135.86C158.84,-136.31 167.21,-136.59 175.78,-136.7"/>
<polygon fill="black" stroke="black" points="175.68,-140.2 185.69,-136.74 175.7,-133.2 175.68,-140.2"/>
</g>
<!-- a6 -->
<g id="node7" class="node">
<title>a6</title>
<polygon fill="#ffff7f" stroke="black" points="468,-148 343.25,-148 343.25,-112 468,-112 468,-148"/>
<text text-anchor="middle" x="405.62" y="-124.58" font-family="Times New Roman,serif" font-size="14.00">&#45;(x &#45; mu) * (x &#45; mu)</text>
</g>
<!-- a5&#45;&gt;a6 -->
<g id="edge5" class="edge">
<title>a5&#45;&gt;a6</title>
<path fill="none" stroke="black" d="M307.74,-130C315.64,-130 323.8,-130 331.89,-130"/>
<polygon fill="black" stroke="black" points="331.84,-133.5 341.84,-130 331.84,-126.5 331.84,-133.5"/>
</g>
<!-- a6&#45;&gt;a7 -->
<g id="edge6" class="edge">
<title>a6&#45;&gt;a7</title>
<path fill="none" stroke="black" d="M468.49,-127.26C476.37,-126.91 484.56,-126.55 492.81,-126.18"/>
<polygon fill="black" stroke="black" points="492.81,-129.64 502.65,-125.7 492.5,-122.65 492.81,-129.64"/>
</g>
<!-- a7&#45;&gt;a8 -->
<g id="edge8" class="edge">
<title>a7&#45;&gt;a8</title>
<path fill="none" stroke="black" d="M672.53,-113.44C680.58,-112.61 688.83,-111.76 697.12,-110.91"/>
<polygon fill="black" stroke="black" points="697.42,-114.3 707.01,-109.79 696.7,-107.33 697.42,-114.3"/>
</g>
<!-- a9 -->
<g id="node10" class="node">
<title>a9</title>
<polygon fill="#ffff7f" stroke="black" points="1197,-117 956,-117 956,-81 1197,-81 1197,-117"/>
<text text-anchor="middle" x="1076.5" y="-93.58" font-family="Times New Roman,serif" font-size="14.00">exp(&#45;(x &#45; mu) * (x &#45; mu) / sigma / sigma)</text>
</g>
<!-- a8&#45;&gt;a9 -->
<g id="edge10" class="edge">
<title>a8&#45;&gt;a9</title>
<path fill="none" stroke="black" d="M920.28,-99C928.42,-99 936.71,-99 944.99,-99"/>
<polygon fill="black" stroke="black" points="944.87,-102.5 954.87,-99 944.87,-95.5 944.87,-102.5"/>
</g>
<!-- a9&#45;&gt;a10 -->
<g id="edge12" class="edge">
<title>a9&#45;&gt;a10</title>
<path fill="none" stroke="black" d="M1197.47,-88.06C1205.6,-87.32 1213.85,-86.56 1222.12,-85.81"/>
<polygon fill="black" stroke="black" points="1222.34,-89.21 1231.98,-84.82 1221.71,-82.24 1222.34,-89.21"/>
</g>
<!-- a12 -->
<g id="node13" class="node">
<title>a12</title>
<polygon fill="#7fff7f" stroke="black" points="1862.75,-63 1552,-63 1552,-27 1862.75,-27 1862.75,-63"/>
<text text-anchor="middle" x="1707.38" y="-39.58" font-family="Times New Roman,serif" font-size="14.00">(scale * exp(&#45;(x &#45; mu) * (x &#45; mu) / sigma / sigma) &#45; y)</text>
</g>
<!-- a10&#45;&gt;a12 -->
<g id="edge13" class="edge">
<title>a10&#45;&gt;a12</title>
<path fill="none" stroke="black" d="M1516.3,-60.51C1524.43,-59.85 1532.65,-59.18 1540.86,-58.51"/>
<polygon fill="black" stroke="black" points="1540.97,-61.93 1550.65,-57.63 1540.4,-54.95 1540.97,-61.93"/>
</g>
<!-- a11 -->
<g id="node12" class="node">
<title>a11</title>
<polygon fill="#7fff7f" stroke="black" points="1401.5,-36 1347.5,-36 1347.5,0 1401.5,0 1401.5,-36"/>
<text text-anchor="middle" x="1374.5" y="-12.57" font-family="Times New Roman,serif" font-size="14.00">y</text>
</g>
<!-- a11&#45;&gt;a12 -->
<g id="edge14" class="edge">
<title>a11&#45;&gt;a12</title>
<path fill="none" stroke="black" d="M1401.74,-20.14C1432.69,-22.67 1486.81,-27.08 1540.94,-31.5"/>
<polygon fill="black" stroke="black" points="1540.5,-35.06 1550.75,-32.38 1541.07,-28.08 1540.5,-35.06"/>
</g>
<!-- a13 -->
<g id="node14" class="node">
<title>a13</title>
<polygon fill="#7fff7f" stroke="black" points="2518.5,-63 1898.75,-63 1898.75,-27 2518.5,-27 2518.5,-63"/>
<text text-anchor="middle" x="2208.62" y="-39.58" font-family="Times New Roman,serif" font-size="14.00">(scale * exp(&#45;(x &#45; mu) * (x &#45; mu) / sigma / sigma) &#45; y) * (scale * exp(&#45;(x &#45; mu) * (x &#45; mu) / sigma / sigma) &#45; y)</text>
</g>
<!-- a12&#45;&gt;a13 -->
<g id="edge15" class="edge">
<title>a12&#45;&gt;a13</title>
<path fill="none" stroke="black" d="M1862.92,-38.71C1871.08,-38.62 1879.39,-38.55 1887.82,-38.49"/>
<polygon fill="black" stroke="black" points="1887.58,-41.99 1897.56,-38.42 1887.54,-34.99 1887.58,-41.99"/>
</g>
<!-- a12&#45;&gt;a13 -->
<g id="edge16" class="edge">
<title>a12&#45;&gt;a13</title>
<path fill="none" stroke="black" d="M1862.92,-51.29C1871.08,-51.38 1879.39,-51.45 1887.82,-51.51"/>
<polygon fill="black" stroke="black" points="1887.54,-55.01 1897.56,-51.58 1887.58,-48.01 1887.54,-55.01"/>
</g>
</g>
</svg>
