<?xml version="1.0" encoding="UTF-8" standalone="no"?><!DOCTYPE svg PUBLIC "-//W3C//DTD SVG 1.1//EN" "http://www.w3.org/Graphics/SVG/1.1/DTD/svg11.dtd"><!-- Generated by graphviz version 2.40.1 (20161225.0304)
 --><!-- Title: G Pages: 1 --><svg xmlns="http://www.w3.org/2000/svg" xmlns:xlink="http://www.w3.org/1999/xlink" width="1230pt" height="201pt" viewBox="0.00 0.00 1229.74 200.83">
<g id="graph0" class="graph" transform="scale(1 1) rotate(0) translate(4 196.8313)">
<title>G</title>
<polygon fill="#ffffff" stroke="transparent" points="-4,4 -4,-196.8313 1225.7399,-196.8313 1225.7399,4 -4,4"/>
<!-- a952602982080 -->
<g id="node1" class="node">
<title>a952602982080</title>
<ellipse fill="none" stroke="#000000" cx="734.8285" cy="-163.4156" rx="73.3378" ry="29.3315"/>
<text text-anchor="middle" x="734.8285" y="-167.6156" font-family="Times,serif" font-size="14.00" fill="#000000">sin(a * 3) </text>
<text text-anchor="middle" x="734.8285" y="-150.8156" font-family="Times,serif" font-size="14.00" fill="#000000">data:0, grad:0.2</text>
</g>
<!-- a952602982088 -->
<g id="node2" class="node">
<title>a952602982088</title>
<ellipse fill="none" stroke="#000000" cx="909.7413" cy="-106.4156" rx="65.9891" ry="29.3315"/>
<text text-anchor="middle" x="909.7413" y="-110.6156" font-family="Times,serif" font-size="14.00" fill="#000000">c * sin(a * 3) </text>
<text text-anchor="middle" x="909.7413" y="-93.8156" font-family="Times,serif" font-size="14.00" fill="#000000">data:0, grad:1</text>
</g>
<!-- a952602982080&#45;&gt;a952602982088 -->
<g id="edge3" class="edge">
<title>a952602982080-&gt;a952602982088</title>
<path fill="none" stroke="#000000" d="M792.1015,-144.7517C809.587,-139.0536 828.9073,-132.7575 846.7501,-126.943"/>
<polygon fill="#000000" stroke="#000000" points="848.0664,-130.1953 856.4898,-123.7691 845.8974,-123.5398 848.0664,-130.1953"/>
</g>
<!-- a952602982096 -->
<g id="node6" class="node">
<title>a952602982096</title>
<ellipse fill="none" stroke="#000000" cx="1116.6126" cy="-67.4156" rx="105.2547" ry="29.3315"/>
<text text-anchor="middle" x="1116.6126" y="-71.6156" font-family="Times,serif" font-size="14.00" fill="#000000">(sin(a) + c * sin(a * 3)) </text>
<text text-anchor="middle" x="1116.6126" y="-54.8156" font-family="Times,serif" font-size="14.00" fill="#000000">data:0, grad:1</text>
</g>
<!-- a952602982088&#45;&gt;a952602982096 -->
<g id="edge7" class="edge">
<title>a952602982088-&gt;a952602982096</title>
<path fill="none" stroke="#000000" d="M970.4117,-94.9779C985.6163,-92.1115 1002.3172,-88.963 1018.8256,-85.8507"/>
<polygon fill="#000000" stroke="#000000" points="1019.886,-89.2126 1029.0645,-83.9205 1018.5891,-82.3337 1019.886,-89.2126"/>
</g>
<!-- a952602982072 -->
<g id="node3" class="node">
<title>a952602982072</title>
<ellipse fill="none" stroke="#000000" cx="734.8285" cy="-86.4156" rx="73.3378" ry="29.3315"/>
<text text-anchor="middle" x="734.8285" y="-90.6156" font-family="Times,serif" font-size="14.00" fill="#000000">c </text>
<text text-anchor="middle" x="734.8285" y="-73.8156" font-family="Times,serif" font-size="14.00" fill="#000000">data:0.2, grad:0</text>
</g>
<!-- a952602982072&#45;&gt;a952602982088 -->
<g id="edge2" class="edge">
<title>a952602982072-&gt;a952602982088</title>
<path fill="none" stroke="#000000" d="M805.2161,-94.464C815.3261,-95.62 825.7526,-96.8122 835.9267,-97.9755"/>
<polygon fill="#000000" stroke="#000000" points="835.6625,-101.468 845.9954,-99.1268 836.4578,-94.5133 835.6625,-101.468"/>
</g>
<!-- a952602982064 -->
<g id="node4" class="node">
<title>a952602982064</title>
<ellipse fill="none" stroke="#000000" cx="478.2448" cy="-148.4156" rx="147.3299" ry="29.3315"/>
<text text-anchor="middle" x="478.2448" y="-152.6156" font-family="Times,serif" font-size="14.00" fill="#000000">a * 3 </text>
<text text-anchor="middle" x="478.2448" y="-135.8156" font-family="Times,serif" font-size="14.00" fill="#000000">data:0, grad:0.9800665778412416</text>
</g>
<!-- a952602982064&#45;&gt;a952602982080 -->
<g id="edge1" class="edge">
<title>a952602982064-&gt;a952602982080</title>
<path fill="none" stroke="#000000" d="M620.0451,-156.7054C630.9977,-157.3456 641.8174,-157.9782 652.1803,-158.584"/>
<polygon fill="#000000" stroke="#000000" points="652.1916,-162.0905 662.3789,-159.1802 652.6002,-155.1025 652.1916,-162.0905"/>
</g>
<!-- a952602982056 -->
<g id="node5" class="node">
<title>a952602982056</title>
<ellipse fill="none" stroke="#000000" cx="147.4149" cy="-148.4156" rx="65.9891" ry="29.3315"/>
<text text-anchor="middle" x="147.4149" y="-152.6156" font-family="Times,serif" font-size="14.00" fill="#000000">3 </text>
<text text-anchor="middle" x="147.4149" y="-135.8156" font-family="Times,serif" font-size="14.00" fill="#000000">data:3, grad:0</text>
</g>
<!-- a952602982056&#45;&gt;a952602982064 -->
<g id="edge5" class="edge">
<title>a952602982056-&gt;a952602982064</title>
<path fill="none" stroke="#000000" d="M213.1718,-148.4156C244.1352,-148.4156 282.5259,-148.4156 320.3876,-148.4156"/>
<polygon fill="#000000" stroke="#000000" points="320.5194,-151.9157 330.5194,-148.4156 320.5194,-144.9157 320.5194,-151.9157"/>
</g>
<!-- a952602982048 -->
<g id="node7" class="node">
<title>a952602982048</title>
<ellipse fill="none" stroke="#000000" cx="909.7413" cy="-29.4156" rx="65.9891" ry="29.3315"/>
<text text-anchor="middle" x="909.7413" y="-33.6156" font-family="Times,serif" font-size="14.00" fill="#000000">sin(a) </text>
<text text-anchor="middle" x="909.7413" y="-16.8156" font-family="Times,serif" font-size="14.00" fill="#000000">data:0, grad:1</text>
</g>
<!-- a952602982048&#45;&gt;a952602982096 -->
<g id="edge6" class="edge">
<title>a952602982048-&gt;a952602982096</title>
<path fill="none" stroke="#000000" d="M970.6906,-40.6114C985.6928,-43.3671 1002.1383,-46.388 1018.4106,-49.377"/>
<polygon fill="#000000" stroke="#000000" points="1018.0378,-52.867 1028.5056,-51.2313 1019.3025,-45.9822 1018.0378,-52.867"/>
</g>
<!-- a952602982040 -->
<g id="node8" class="node">
<title>a952602982040</title>
<ellipse fill="none" stroke="#000000" cx="147.4149" cy="-57.4156" rx="147.3299" ry="29.3315"/>
<text text-anchor="middle" x="147.4149" y="-61.6156" font-family="Times,serif" font-size="14.00" fill="#000000">a </text>
<text text-anchor="middle" x="147.4149" y="-44.8156" font-family="Times,serif" font-size="14.00" fill="#000000">data:0, grad:3.5403023058681398</text>
</g>
<!-- a952602982040&#45;&gt;a952602982064 -->
<g id="edge4" class="edge">
<title>a952602982040-&gt;a952602982064</title>
<path fill="none" stroke="#000000" d="M234.3366,-81.3248C279.6448,-93.7876 335.1811,-109.0637 381.8091,-121.8895"/>
<polygon fill="#000000" stroke="#000000" points="381.0468,-125.3097 391.6169,-124.5873 382.9033,-118.5604 381.0468,-125.3097"/>
</g>
<!-- a952602982040&#45;&gt;a952602982048 -->
<g id="edge8" class="edge">
<title>a952602982040-&gt;a952602982048</title>
<path fill="none" stroke="#000000" d="M292.5971,-52.0831C453.7375,-46.1645 707.6467,-36.8385 833.6236,-32.2114"/>
<polygon fill="#000000" stroke="#000000" points="834.0752,-35.6973 843.94,-31.8325 833.8182,-28.702 834.0752,-35.6973"/>
</g>
</g>
</svg>