<?xml version="1.0" encoding="UTF-8" standalone="no"?><!DOCTYPE svg PUBLIC "-//W3C//DTD SVG 1.1//EN" "http://www.w3.org/Graphics/SVG/1.1/DTD/svg11.dtd"><!-- Generated by graphviz version 2.40.1 (20161225.0304)
 --><!-- Title: G Pages: 1 --><svg xmlns="http://www.w3.org/2000/svg" xmlns:xlink="http://www.w3.org/1999/xlink" width="2045pt" height="620pt" viewBox="0.00 0.00 2045.22 620.00">
<g id="graph0" class="graph" transform="scale(1 1) rotate(0) translate(4 616)">
<title>G</title>
<polygon fill="#ffffff" stroke="transparent" points="-4,4 -4,-616 2041.2194,-616 2041.2194,4 -4,4"/>
<!-- a0 -->
<g id="node1" class="node">
<title>a0</title>
<polygon fill="#ffff7f" stroke="#000000" points="157.2509,-612 103.2509,-612 103.2509,-576 157.2509,-576 157.2509,-612"/>
<text text-anchor="middle" x="130.2509" y="-589.8" font-family="Times,serif" font-size="14.00" fill="#000000">x0</text>
</g>
<!-- a14 -->
<g id="node15" class="node">
<title>a14</title>
<polygon fill="#ffff7f" stroke="#000000" points="162.7327,-540 97.7691,-540 97.7691,-504 162.7327,-504 162.7327,-540"/>
<text text-anchor="middle" x="130.2509" y="-517.8" font-family="Times,serif" font-size="14.00" fill="#000000">(x1 - x0)</text>
</g>
<!-- a0&#45;&gt;a14 -->
<g id="edge2" class="edge">
<title>a0-&gt;a14</title>
<path fill="none" stroke="#000000" d="M130.2509,-575.8314C130.2509,-568.131 130.2509,-558.9743 130.2509,-550.4166"/>
<polygon fill="#000000" stroke="#000000" points="133.751,-550.4132 130.2509,-540.4133 126.751,-550.4133 133.751,-550.4132"/>
</g>
<!-- a1 -->
<g id="node2" class="node">
<title>a1</title>
<polygon fill="#ffff7f" stroke="#000000" points="230.2509,-612 176.2509,-612 176.2509,-576 230.2509,-576 230.2509,-612"/>
<text text-anchor="middle" x="203.2509" y="-589.8" font-family="Times,serif" font-size="14.00" fill="#000000">x1</text>
</g>
<!-- a1&#45;&gt;a14 -->
<g id="edge1" class="edge">
<title>a1-&gt;a14</title>
<path fill="none" stroke="#000000" d="M184.8299,-575.8314C176.098,-567.219 165.5192,-556.7851 156.0086,-547.4048"/>
<polygon fill="#000000" stroke="#000000" points="158.2434,-544.6931 148.666,-540.1628 153.3279,-549.6769 158.2434,-544.6931"/>
</g>
<!-- a15 -->
<g id="node16" class="node">
<title>a15</title>
<polygon fill="#ffff7f" stroke="#000000" points="454.7327,-540 389.7691,-540 389.7691,-504 454.7327,-504 454.7327,-540"/>
<text text-anchor="middle" x="422.2509" y="-517.8" font-family="Times,serif" font-size="14.00" fill="#000000">(x2 - x1)</text>
</g>
<!-- a1&#45;&gt;a15 -->
<g id="edge4" class="edge">
<title>a1-&gt;a15</title>
<path fill="none" stroke="#000000" d="M230.5067,-580.1206C233.7565,-578.6508 237.0548,-577.2419 240.2509,-576 286.8653,-557.8876 342.1599,-542.2754 379.469,-532.5627"/>
<polygon fill="#000000" stroke="#000000" points="380.6811,-535.8649 389.4929,-529.9825 378.9361,-529.0859 380.6811,-535.8649"/>
</g>
<!-- a2 -->
<g id="node3" class="node">
<title>a2</title>
<polygon fill="#ffff7f" stroke="#000000" points="584.2509,-612 530.2509,-612 530.2509,-576 584.2509,-576 584.2509,-612"/>
<text text-anchor="middle" x="557.2509" y="-589.8" font-family="Times,serif" font-size="14.00" fill="#000000">x2</text>
</g>
<!-- a2&#45;&gt;a15 -->
<g id="edge3" class="edge">
<title>a2-&gt;a15</title>
<path fill="none" stroke="#000000" d="M529.9316,-579.4297C510.9206,-569.2905 485.2238,-555.5855 463.7008,-544.1066"/>
<polygon fill="#000000" stroke="#000000" points="465.2346,-540.958 454.7639,-539.3403 461.9404,-547.1345 465.2346,-540.958"/>
</g>
<!-- a16 -->
<g id="node17" class="node">
<title>a16</title>
<polygon fill="#ffff7f" stroke="#000000" points="714.7327,-468 649.7691,-468 649.7691,-432 714.7327,-432 714.7327,-468"/>
<text text-anchor="middle" x="682.2509" y="-445.8" font-family="Times,serif" font-size="14.00" fill="#000000">(x3 - x2)</text>
</g>
<!-- a2&#45;&gt;a16 -->
<g id="edge6" class="edge">
<title>a2-&gt;a16</title>
<path fill="none" stroke="#000000" d="M575.4568,-575.8715C585.6217,-565.5588 598.3884,-552.2854 609.2509,-540 627.7413,-519.0875 647.6326,-494.4058 661.9745,-476.1839"/>
<polygon fill="#000000" stroke="#000000" points="664.7367,-478.3334 668.1486,-468.3029 659.2263,-474.0164 664.7367,-478.3334"/>
</g>
<!-- a3 -->
<g id="node4" class="node">
<title>a3</title>
<polygon fill="#ffff7f" stroke="#000000" points="751.2509,-540 697.2509,-540 697.2509,-504 751.2509,-504 751.2509,-540"/>
<text text-anchor="middle" x="724.2509" y="-517.8" font-family="Times,serif" font-size="14.00" fill="#000000">x3</text>
</g>
<!-- a3&#45;&gt;a16 -->
<g id="edge5" class="edge">
<title>a3-&gt;a16</title>
<path fill="none" stroke="#000000" d="M713.6525,-503.8314C708.9632,-495.7925 703.3481,-486.1666 698.1711,-477.2918"/>
<polygon fill="#000000" stroke="#000000" points="701.054,-475.2875 692.992,-468.4133 695.0075,-478.8146 701.054,-475.2875"/>
</g>
<!-- a17 -->
<g id="node18" class="node">
<title>a17</title>
<polygon fill="#ffff7f" stroke="#000000" points="967.7327,-396 902.7691,-396 902.7691,-360 967.7327,-360 967.7327,-396"/>
<text text-anchor="middle" x="935.2509" y="-373.8" font-family="Times,serif" font-size="14.00" fill="#000000">(x4 - x3)</text>
</g>
<!-- a3&#45;&gt;a17 -->
<g id="edge8" class="edge">
<title>a3-&gt;a17</title>
<path fill="none" stroke="#000000" d="M731.047,-503.7626C739.5393,-483.4019 755.9731,-450.8436 780.2509,-432 819.8469,-401.267 841.9311,-413.1287 893.1558,-396.0669"/>
<polygon fill="#000000" stroke="#000000" points="894.4615,-399.3173 902.7079,-392.6653 892.1132,-392.7229 894.4615,-399.3173"/>
</g>
<!-- a4 -->
<g id="node5" class="node">
<title>a4</title>
<polygon fill="#ffff7f" stroke="#000000" points="990.2509,-468 936.2509,-468 936.2509,-432 990.2509,-432 990.2509,-468"/>
<text text-anchor="middle" x="963.2509" y="-445.8" font-family="Times,serif" font-size="14.00" fill="#000000">x4</text>
</g>
<!-- a4&#45;&gt;a17 -->
<g id="edge7" class="edge">
<title>a4-&gt;a17</title>
<path fill="none" stroke="#000000" d="M956.1853,-431.8314C953.1249,-423.9617 949.473,-414.5712 946.0827,-405.8533"/>
<polygon fill="#000000" stroke="#000000" points="949.2982,-404.4647 942.4116,-396.4133 942.7741,-407.0019 949.2982,-404.4647"/>
</g>
<!-- a18 -->
<g id="node19" class="node">
<title>a18</title>
<polygon fill="#ffff7f" stroke="#000000" points="1247.7327,-396 1182.7691,-396 1182.7691,-360 1247.7327,-360 1247.7327,-396"/>
<text text-anchor="middle" x="1215.2509" y="-373.8" font-family="Times,serif" font-size="14.00" fill="#000000">(x5 - x4)</text>
</g>
<!-- a4&#45;&gt;a18 -->
<g id="edge10" class="edge">
<title>a4-&gt;a18</title>
<path fill="none" stroke="#000000" d="M990.699,-442.1577C1034.5891,-429.6177 1120.8943,-404.959 1172.7891,-390.1319"/>
<polygon fill="#000000" stroke="#000000" points="1174.0328,-393.4167 1182.6865,-387.3041 1172.1097,-386.6861 1174.0328,-393.4167"/>
</g>
<!-- a5 -->
<g id="node6" class="node">
<title>a5</title>
<polygon fill="#ffff7f" stroke="#000000" points="1324.2509,-468 1270.2509,-468 1270.2509,-432 1324.2509,-432 1324.2509,-468"/>
<text text-anchor="middle" x="1297.2509" y="-445.8" font-family="Times,serif" font-size="14.00" fill="#000000">x5</text>
</g>
<!-- a5&#45;&gt;a18 -->
<g id="edge9" class="edge">
<title>a5-&gt;a18</title>
<path fill="none" stroke="#000000" d="M1276.5588,-431.8314C1266.5561,-423.0485 1254.3959,-412.3712 1243.551,-402.8489"/>
<polygon fill="#000000" stroke="#000000" points="1245.7601,-400.1308 1235.9363,-396.1628 1241.1415,-405.3909 1245.7601,-400.1308"/>
</g>
<!-- a19 -->
<g id="node20" class="node">
<title>a19</title>
<polygon fill="#ffff7f" stroke="#000000" points="1539.7327,-396 1474.7691,-396 1474.7691,-360 1539.7327,-360 1539.7327,-396"/>
<text text-anchor="middle" x="1507.2509" y="-373.8" font-family="Times,serif" font-size="14.00" fill="#000000">(x6 - x5)</text>
</g>
<!-- a5&#45;&gt;a19 -->
<g id="edge12" class="edge">
<title>a5-&gt;a19</title>
<path fill="none" stroke="#000000" d="M1324.2748,-440.7347C1359.8614,-428.5335 1422.8243,-406.9463 1464.8004,-392.5545"/>
<polygon fill="#000000" stroke="#000000" points="1466.142,-395.7945 1474.4663,-389.2404 1463.8717,-389.1729 1466.142,-395.7945"/>
</g>
<!-- a6 -->
<g id="node7" class="node">
<title>a6</title>
<polygon fill="#ffff7f" stroke="#000000" points="1534.2509,-468 1480.2509,-468 1480.2509,-432 1534.2509,-432 1534.2509,-468"/>
<text text-anchor="middle" x="1507.2509" y="-445.8" font-family="Times,serif" font-size="14.00" fill="#000000">x6</text>
</g>
<!-- a6&#45;&gt;a19 -->
<g id="edge11" class="edge">
<title>a6-&gt;a19</title>
<path fill="none" stroke="#000000" d="M1507.2509,-431.8314C1507.2509,-424.131 1507.2509,-414.9743 1507.2509,-406.4166"/>
<polygon fill="#000000" stroke="#000000" points="1510.751,-406.4132 1507.2509,-396.4133 1503.751,-406.4133 1510.751,-406.4132"/>
</g>
<!-- a7 -->
<g id="node8" class="node">
<title>a7</title>
<polygon fill="#ffff7f" stroke="#000000" points="303.2509,-612 249.2509,-612 249.2509,-576 303.2509,-576 303.2509,-612"/>
<text text-anchor="middle" x="276.2509" y="-589.8" font-family="Times,serif" font-size="14.00" fill="#000000">y0</text>
</g>
<!-- a20 -->
<g id="node21" class="node">
<title>a20</title>
<polygon fill="#ffff7f" stroke="#000000" points="308.7327,-540 243.7691,-540 243.7691,-504 308.7327,-504 308.7327,-540"/>
<text text-anchor="middle" x="276.2509" y="-517.8" font-family="Times,serif" font-size="14.00" fill="#000000">(y1 - y0)</text>
</g>
<!-- a7&#45;&gt;a20 -->
<g id="edge14" class="edge">
<title>a7-&gt;a20</title>
<path fill="none" stroke="#000000" d="M276.2509,-575.8314C276.2509,-568.131 276.2509,-558.9743 276.2509,-550.4166"/>
<polygon fill="#000000" stroke="#000000" points="279.751,-550.4132 276.2509,-540.4133 272.751,-550.4133 279.751,-550.4132"/>
</g>
<!-- a8 -->
<g id="node9" class="node">
<title>a8</title>
<polygon fill="#ffff7f" stroke="#000000" points="474.2509,-612 420.2509,-612 420.2509,-576 474.2509,-576 474.2509,-612"/>
<text text-anchor="middle" x="447.2509" y="-589.8" font-family="Times,serif" font-size="14.00" fill="#000000">y1</text>
</g>
<!-- a8&#45;&gt;a20 -->
<g id="edge13" class="edge">
<title>a8-&gt;a20</title>
<path fill="none" stroke="#000000" d="M420.1554,-582.5914C392.7595,-571.0562 350.0391,-553.0687 318.2523,-539.6848"/>
<polygon fill="#000000" stroke="#000000" points="319.3422,-536.3461 308.7676,-535.6912 316.6257,-542.7976 319.3422,-536.3461"/>
</g>
<!-- a21 -->
<g id="node22" class="node">
<title>a21</title>
<polygon fill="#ffff7f" stroke="#000000" points="600.7327,-540 535.7691,-540 535.7691,-504 600.7327,-504 600.7327,-540"/>
<text text-anchor="middle" x="568.2509" y="-517.8" font-family="Times,serif" font-size="14.00" fill="#000000">(y2 - y1)</text>
</g>
<!-- a8&#45;&gt;a21 -->
<g id="edge16" class="edge">
<title>a8-&gt;a21</title>
<path fill="none" stroke="#000000" d="M474.4057,-577.8418C490.426,-568.309 510.9828,-556.0769 528.7711,-545.4921"/>
<polygon fill="#000000" stroke="#000000" points="530.9783,-548.2516 537.7822,-540.1301 527.3987,-542.236 530.9783,-548.2516"/>
</g>
<!-- a9 -->
<g id="node10" class="node">
<title>a9</title>
<polygon fill="#ffff7f" stroke="#000000" points="675.2509,-612 621.2509,-612 621.2509,-576 675.2509,-576 675.2509,-612"/>
<text text-anchor="middle" x="648.2509" y="-589.8" font-family="Times,serif" font-size="14.00" fill="#000000">y2</text>
</g>
<!-- a9&#45;&gt;a21 -->
<g id="edge15" class="edge">
<title>a9-&gt;a21</title>
<path fill="none" stroke="#000000" d="M628.0635,-575.8314C618.3995,-567.1337 606.6713,-556.5783 596.1693,-547.1265"/>
<polygon fill="#000000" stroke="#000000" points="598.2062,-544.251 588.4318,-540.1628 593.5234,-549.454 598.2062,-544.251"/>
</g>
<!-- a22 -->
<g id="node23" class="node">
<title>a22</title>
<polygon fill="#ffff7f" stroke="#000000" points="853.7327,-468 788.7691,-468 788.7691,-432 853.7327,-432 853.7327,-468"/>
<text text-anchor="middle" x="821.2509" y="-445.8" font-family="Times,serif" font-size="14.00" fill="#000000">(y3 - y2)</text>
</g>
<!-- a9&#45;&gt;a22 -->
<g id="edge18" class="edge">
<title>a9-&gt;a22</title>
<path fill="none" stroke="#000000" d="M675.4392,-585.4599C699.6691,-576.8531 735.0883,-561.7245 760.2509,-540 780.5102,-522.5089 797.0412,-496.7823 807.7586,-477.3097"/>
<polygon fill="#000000" stroke="#000000" points="810.9363,-478.7885 812.5436,-468.3163 804.7566,-475.5005 810.9363,-478.7885"/>
</g>
<!-- a10 -->
<g id="node11" class="node">
<title>a10</title>
<polygon fill="#ffff7f" stroke="#000000" points="864.2509,-540 810.2509,-540 810.2509,-504 864.2509,-504 864.2509,-540"/>
<text text-anchor="middle" x="837.2509" y="-517.8" font-family="Times,serif" font-size="14.00" fill="#000000">y3</text>
</g>
<!-- a10&#45;&gt;a22 -->
<g id="edge17" class="edge">
<title>a10-&gt;a22</title>
<path fill="none" stroke="#000000" d="M833.2134,-503.8314C831.5022,-496.131 829.4674,-486.9743 827.5657,-478.4166"/>
<polygon fill="#000000" stroke="#000000" points="830.9288,-477.4159 825.3427,-468.4133 824.0955,-478.9344 830.9288,-477.4159"/>
</g>
<!-- a23 -->
<g id="node24" class="node">
<title>a23</title>
<polygon fill="#ffff7f" stroke="#000000" points="1101.7327,-396 1036.7691,-396 1036.7691,-360 1101.7327,-360 1101.7327,-396"/>
<text text-anchor="middle" x="1069.2509" y="-373.8" font-family="Times,serif" font-size="14.00" fill="#000000">(y4 - y3)</text>
</g>
<!-- a10&#45;&gt;a23 -->
<g id="edge20" class="edge">
<title>a10-&gt;a23</title>
<path fill="none" stroke="#000000" d="M864.3881,-517.94C898.462,-511.7867 957.5033,-497.537 999.2509,-468 1022.6527,-451.4429 1041.979,-424.8167 1054.3518,-404.8123"/>
<polygon fill="#000000" stroke="#000000" points="1057.4055,-406.5253 1059.5369,-396.147 1051.3988,-402.9309 1057.4055,-406.5253"/>
</g>
<!-- a11 -->
<g id="node12" class="node">
<title>a11</title>
<polygon fill="#ffff7f" stroke="#000000" points="1195.2509,-468 1141.2509,-468 1141.2509,-432 1195.2509,-432 1195.2509,-468"/>
<text text-anchor="middle" x="1168.2509" y="-445.8" font-family="Times,serif" font-size="14.00" fill="#000000">y4</text>
</g>
<!-- a11&#45;&gt;a23 -->
<g id="edge19" class="edge">
<title>a11-&gt;a23</title>
<path fill="none" stroke="#000000" d="M1143.269,-431.8314C1130.9581,-422.8779 1115.9402,-411.9558 1102.6572,-402.2955"/>
<polygon fill="#000000" stroke="#000000" points="1104.3708,-399.214 1094.2248,-396.1628 1100.2536,-404.8752 1104.3708,-399.214"/>
</g>
<!-- a24 -->
<g id="node25" class="node">
<title>a24</title>
<polygon fill="#ffff7f" stroke="#000000" points="1393.7327,-396 1328.7691,-396 1328.7691,-360 1393.7327,-360 1393.7327,-396"/>
<text text-anchor="middle" x="1361.2509" y="-373.8" font-family="Times,serif" font-size="14.00" fill="#000000">(y5 - y4)</text>
</g>
<!-- a11&#45;&gt;a24 -->
<g id="edge22" class="edge">
<title>a11-&gt;a24</title>
<path fill="none" stroke="#000000" d="M1195.4937,-439.8369C1227.6381,-427.8452 1281.4514,-407.7697 1319.0137,-393.7569"/>
<polygon fill="#000000" stroke="#000000" points="1320.5212,-396.9302 1328.6671,-390.1556 1318.0745,-390.3717 1320.5212,-396.9302"/>
</g>
<!-- a12 -->
<g id="node13" class="node">
<title>a12</title>
<polygon fill="#ffff7f" stroke="#000000" points="1425.2509,-468 1371.2509,-468 1371.2509,-432 1425.2509,-432 1425.2509,-468"/>
<text text-anchor="middle" x="1398.2509" y="-445.8" font-family="Times,serif" font-size="14.00" fill="#000000">y5</text>
</g>
<!-- a12&#45;&gt;a24 -->
<g id="edge21" class="edge">
<title>a12-&gt;a24</title>
<path fill="none" stroke="#000000" d="M1388.9142,-431.8314C1384.8266,-423.8771 1379.9405,-414.369 1375.42,-405.5723"/>
<polygon fill="#000000" stroke="#000000" points="1378.397,-403.7078 1370.7133,-396.4133 1372.171,-406.9074 1378.397,-403.7078"/>
</g>
<!-- a25 -->
<g id="node26" class="node">
<title>a25</title>
<polygon fill="#ffff7f" stroke="#000000" points="1685.7327,-396 1620.7691,-396 1620.7691,-360 1685.7327,-360 1685.7327,-396"/>
<text text-anchor="middle" x="1653.2509" y="-373.8" font-family="Times,serif" font-size="14.00" fill="#000000">(y6 - y5)</text>
</g>
<!-- a12&#45;&gt;a25 -->
<g id="edge24" class="edge">
<title>a12-&gt;a25</title>
<path fill="none" stroke="#000000" d="M1425.5404,-442.2947C1469.9592,-429.753 1558.2139,-404.834 1610.8535,-389.971"/>
<polygon fill="#000000" stroke="#000000" points="1611.8935,-393.3143 1620.5662,-387.2286 1609.9913,-386.5777 1611.8935,-393.3143"/>
</g>
<!-- a13 -->
<g id="node14" class="node">
<title>a13</title>
<polygon fill="#ffff7f" stroke="#000000" points="1680.2509,-468 1626.2509,-468 1626.2509,-432 1680.2509,-432 1680.2509,-468"/>
<text text-anchor="middle" x="1653.2509" y="-445.8" font-family="Times,serif" font-size="14.00" fill="#000000">y6</text>
</g>
<!-- a13&#45;&gt;a25 -->
<g id="edge23" class="edge">
<title>a13-&gt;a25</title>
<path fill="none" stroke="#000000" d="M1653.2509,-431.8314C1653.2509,-424.131 1653.2509,-414.9743 1653.2509,-406.4166"/>
<polygon fill="#000000" stroke="#000000" points="1656.751,-406.4132 1653.2509,-396.4133 1649.751,-406.4133 1656.751,-406.4132"/>
</g>
<!-- a26 -->
<g id="node27" class="node">
<title>a26</title>
<polygon fill="#ffff7f" stroke="#000000" points="194.2145,-468 66.2873,-468 66.2873,-432 194.2145,-432 194.2145,-468"/>
<text text-anchor="middle" x="130.2509" y="-445.8" font-family="Times,serif" font-size="14.00" fill="#000000">(x1 - x0) * (x1 - x0)</text>
</g>
<!-- a14&#45;&gt;a26 -->
<g id="edge25" class="edge">
<title>a14-&gt;a26</title>
<path fill="none" stroke="#000000" d="M124.2985,-503.8314C123.5481,-496.131 123.3272,-486.9743 123.6358,-478.4166"/>
<polygon fill="#000000" stroke="#000000" points="127.1301,-478.6161 124.2749,-468.4133 120.1444,-478.1697 127.1301,-478.6161"/>
</g>
<!-- a14&#45;&gt;a26 -->
<g id="edge26" class="edge">
<title>a14-&gt;a26</title>
<path fill="none" stroke="#000000" d="M136.2033,-503.8314C136.9537,-496.131 137.1746,-486.9743 136.866,-478.4166"/>
<polygon fill="#000000" stroke="#000000" points="140.3574,-478.1697 136.2269,-468.4133 133.3717,-478.6161 140.3574,-478.1697"/>
</g>
<!-- a27 -->
<g id="node28" class="node">
<title>a27</title>
<polygon fill="#ffff7f" stroke="#000000" points="486.2145,-468 358.2873,-468 358.2873,-432 486.2145,-432 486.2145,-468"/>
<text text-anchor="middle" x="422.2509" y="-445.8" font-family="Times,serif" font-size="14.00" fill="#000000">(x2 - x1) * (x2 - x1)</text>
</g>
<!-- a15&#45;&gt;a27 -->
<g id="edge27" class="edge">
<title>a15-&gt;a27</title>
<path fill="none" stroke="#000000" d="M416.2985,-503.8314C415.5481,-496.131 415.3272,-486.9743 415.6358,-478.4166"/>
<polygon fill="#000000" stroke="#000000" points="419.1301,-478.6161 416.2749,-468.4133 412.1444,-478.1697 419.1301,-478.6161"/>
</g>
<!-- a15&#45;&gt;a27 -->
<g id="edge28" class="edge">
<title>a15-&gt;a27</title>
<path fill="none" stroke="#000000" d="M428.2033,-503.8314C428.9537,-496.131 429.1746,-486.9743 428.866,-478.4166"/>
<polygon fill="#000000" stroke="#000000" points="432.3574,-478.1697 428.2269,-468.4133 425.3717,-478.6161 432.3574,-478.1697"/>
</g>
<!-- a28 -->
<g id="node29" class="node">
<title>a28</title>
<polygon fill="#ffff7f" stroke="#000000" points="739.2145,-396 611.2873,-396 611.2873,-360 739.2145,-360 739.2145,-396"/>
<text text-anchor="middle" x="675.2509" y="-373.8" font-family="Times,serif" font-size="14.00" fill="#000000">(x3 - x2) * (x3 - x2)</text>
</g>
<!-- a16&#45;&gt;a28 -->
<g id="edge29" class="edge">
<title>a16-&gt;a28</title>
<path fill="none" stroke="#000000" d="M674.5321,-431.8314C673.033,-424.131 671.9219,-414.9743 671.3985,-406.4166"/>
<polygon fill="#000000" stroke="#000000" points="674.8964,-406.2911 671.0651,-396.4133 667.9003,-406.5244 674.8964,-406.2911"/>
</g>
<!-- a16&#45;&gt;a28 -->
<g id="edge30" class="edge">
<title>a16-&gt;a28</title>
<path fill="none" stroke="#000000" d="M686.4369,-431.8314C686.4387,-424.131 685.7693,-414.9743 684.6287,-406.4166"/>
<polygon fill="#000000" stroke="#000000" points="688.0632,-405.7292 683.0171,-396.4133 681.1523,-406.8427 688.0632,-405.7292"/>
</g>
<!-- a29 -->
<g id="node30" class="node">
<title>a29</title>
<polygon fill="#ffff7f" stroke="#000000" points="987.2145,-324 859.2873,-324 859.2873,-288 987.2145,-288 987.2145,-324"/>
<text text-anchor="middle" x="923.2509" y="-301.8" font-family="Times,serif" font-size="14.00" fill="#000000">(x4 - x3) * (x4 - x3)</text>
</g>
<!-- a17&#45;&gt;a29 -->
<g id="edge31" class="edge">
<title>a17-&gt;a29</title>
<path fill="none" stroke="#000000" d="M926.2704,-359.8314C924.2366,-352.131 922.4896,-342.9743 921.3719,-334.4166"/>
<polygon fill="#000000" stroke="#000000" points="924.8479,-334.003 920.3438,-324.4133 917.8846,-334.7187 924.8479,-334.003"/>
</g>
<!-- a17&#45;&gt;a29 -->
<g id="edge32" class="edge">
<title>a17-&gt;a29</title>
<path fill="none" stroke="#000000" d="M938.1752,-359.8314C937.6422,-352.131 936.337,-342.9743 934.6021,-334.4166"/>
<polygon fill="#000000" stroke="#000000" points="937.953,-333.3713 932.2958,-324.4133 931.1319,-334.944 937.953,-333.3713"/>
</g>
<!-- a30 -->
<g id="node31" class="node">
<title>a30</title>
<polygon fill="#ffff7f" stroke="#000000" points="1279.2145,-324 1151.2873,-324 1151.2873,-288 1279.2145,-288 1279.2145,-324"/>
<text text-anchor="middle" x="1215.2509" y="-301.8" font-family="Times,serif" font-size="14.00" fill="#000000">(x5 - x4) * (x5 - x4)</text>
</g>
<!-- a18&#45;&gt;a30 -->
<g id="edge33" class="edge">
<title>a18-&gt;a30</title>
<path fill="none" stroke="#000000" d="M1209.2985,-359.8314C1208.5481,-352.131 1208.3272,-342.9743 1208.6358,-334.4166"/>
<polygon fill="#000000" stroke="#000000" points="1212.1301,-334.6161 1209.2749,-324.4133 1205.1444,-334.1697 1212.1301,-334.6161"/>
</g>
<!-- a18&#45;&gt;a30 -->
<g id="edge34" class="edge">
<title>a18-&gt;a30</title>
<path fill="none" stroke="#000000" d="M1221.2033,-359.8314C1221.9537,-352.131 1222.1746,-342.9743 1221.866,-334.4166"/>
<polygon fill="#000000" stroke="#000000" points="1225.3574,-334.1697 1221.2269,-324.4133 1218.3717,-334.6161 1225.3574,-334.1697"/>
</g>
<!-- a31 -->
<g id="node32" class="node">
<title>a31</title>
<polygon fill="#ffff7f" stroke="#000000" points="1571.2145,-324 1443.2873,-324 1443.2873,-288 1571.2145,-288 1571.2145,-324"/>
<text text-anchor="middle" x="1507.2509" y="-301.8" font-family="Times,serif" font-size="14.00" fill="#000000">(x6 - x5) * (x6 - x5)</text>
</g>
<!-- a19&#45;&gt;a31 -->
<g id="edge35" class="edge">
<title>a19-&gt;a31</title>
<path fill="none" stroke="#000000" d="M1501.2985,-359.8314C1500.5481,-352.131 1500.3272,-342.9743 1500.6358,-334.4166"/>
<polygon fill="#000000" stroke="#000000" points="1504.1301,-334.6161 1501.2749,-324.4133 1497.1444,-334.1697 1504.1301,-334.6161"/>
</g>
<!-- a19&#45;&gt;a31 -->
<g id="edge36" class="edge">
<title>a19-&gt;a31</title>
<path fill="none" stroke="#000000" d="M1513.2033,-359.8314C1513.9537,-352.131 1514.1746,-342.9743 1513.866,-334.4166"/>
<polygon fill="#000000" stroke="#000000" points="1517.3574,-334.1697 1513.2269,-324.4133 1510.3717,-334.6161 1517.3574,-334.1697"/>
</g>
<!-- a32 -->
<g id="node33" class="node">
<title>a32</title>
<polygon fill="#ffff7f" stroke="#000000" points="340.2145,-468 212.2873,-468 212.2873,-432 340.2145,-432 340.2145,-468"/>
<text text-anchor="middle" x="276.2509" y="-445.8" font-family="Times,serif" font-size="14.00" fill="#000000">(y1 - y0) * (y1 - y0)</text>
</g>
<!-- a20&#45;&gt;a32 -->
<g id="edge37" class="edge">
<title>a20-&gt;a32</title>
<path fill="none" stroke="#000000" d="M270.2985,-503.8314C269.5481,-496.131 269.3272,-486.9743 269.6358,-478.4166"/>
<polygon fill="#000000" stroke="#000000" points="273.1301,-478.6161 270.2749,-468.4133 266.1444,-478.1697 273.1301,-478.6161"/>
</g>
<!-- a20&#45;&gt;a32 -->
<g id="edge38" class="edge">
<title>a20-&gt;a32</title>
<path fill="none" stroke="#000000" d="M282.2033,-503.8314C282.9537,-496.131 283.1746,-486.9743 282.866,-478.4166"/>
<polygon fill="#000000" stroke="#000000" points="286.3574,-478.1697 282.2269,-468.4133 279.3717,-478.6161 286.3574,-478.1697"/>
</g>
<!-- a33 -->
<g id="node34" class="node">
<title>a33</title>
<polygon fill="#ffff7f" stroke="#000000" points="632.2145,-468 504.2873,-468 504.2873,-432 632.2145,-432 632.2145,-468"/>
<text text-anchor="middle" x="568.2509" y="-445.8" font-family="Times,serif" font-size="14.00" fill="#000000">(y2 - y1) * (y2 - y1)</text>
</g>
<!-- a21&#45;&gt;a33 -->
<g id="edge39" class="edge">
<title>a21-&gt;a33</title>
<path fill="none" stroke="#000000" d="M562.2985,-503.8314C561.5481,-496.131 561.3272,-486.9743 561.6358,-478.4166"/>
<polygon fill="#000000" stroke="#000000" points="565.1301,-478.6161 562.2749,-468.4133 558.1444,-478.1697 565.1301,-478.6161"/>
</g>
<!-- a21&#45;&gt;a33 -->
<g id="edge40" class="edge">
<title>a21-&gt;a33</title>
<path fill="none" stroke="#000000" d="M574.2033,-503.8314C574.9537,-496.131 575.1746,-486.9743 574.866,-478.4166"/>
<polygon fill="#000000" stroke="#000000" points="578.3574,-478.1697 574.2269,-468.4133 571.3717,-478.6161 578.3574,-478.1697"/>
</g>
<!-- a34 -->
<g id="node35" class="node">
<title>a34</title>
<polygon fill="#ffff7f" stroke="#000000" points="885.2145,-396 757.2873,-396 757.2873,-360 885.2145,-360 885.2145,-396"/>
<text text-anchor="middle" x="821.2509" y="-373.8" font-family="Times,serif" font-size="14.00" fill="#000000">(y3 - y2) * (y3 - y2)</text>
</g>
<!-- a22&#45;&gt;a34 -->
<g id="edge41" class="edge">
<title>a22-&gt;a34</title>
<path fill="none" stroke="#000000" d="M815.2985,-431.8314C814.5481,-424.131 814.3272,-414.9743 814.6358,-406.4166"/>
<polygon fill="#000000" stroke="#000000" points="818.1301,-406.6161 815.2749,-396.4133 811.1444,-406.1697 818.1301,-406.6161"/>
</g>
<!-- a22&#45;&gt;a34 -->
<g id="edge42" class="edge">
<title>a22-&gt;a34</title>
<path fill="none" stroke="#000000" d="M827.2033,-431.8314C827.9537,-424.131 828.1746,-414.9743 827.866,-406.4166"/>
<polygon fill="#000000" stroke="#000000" points="831.3574,-406.1697 827.2269,-396.4133 824.3717,-406.6161 831.3574,-406.1697"/>
</g>
<!-- a35 -->
<g id="node36" class="node">
<title>a35</title>
<polygon fill="#ffff7f" stroke="#000000" points="1133.2145,-324 1005.2873,-324 1005.2873,-288 1133.2145,-288 1133.2145,-324"/>
<text text-anchor="middle" x="1069.2509" y="-301.8" font-family="Times,serif" font-size="14.00" fill="#000000">(y4 - y3) * (y4 - y3)</text>
</g>
<!-- a23&#45;&gt;a35 -->
<g id="edge43" class="edge">
<title>a23-&gt;a35</title>
<path fill="none" stroke="#000000" d="M1063.2985,-359.8314C1062.5481,-352.131 1062.3272,-342.9743 1062.6358,-334.4166"/>
<polygon fill="#000000" stroke="#000000" points="1066.1301,-334.6161 1063.2749,-324.4133 1059.1444,-334.1697 1066.1301,-334.6161"/>
</g>
<!-- a23&#45;&gt;a35 -->
<g id="edge44" class="edge">
<title>a23-&gt;a35</title>
<path fill="none" stroke="#000000" d="M1075.2033,-359.8314C1075.9537,-352.131 1076.1746,-342.9743 1075.866,-334.4166"/>
<polygon fill="#000000" stroke="#000000" points="1079.3574,-334.1697 1075.2269,-324.4133 1072.3717,-334.6161 1079.3574,-334.1697"/>
</g>
<!-- a36 -->
<g id="node37" class="node">
<title>a36</title>
<polygon fill="#ffff7f" stroke="#000000" points="1425.2145,-324 1297.2873,-324 1297.2873,-288 1425.2145,-288 1425.2145,-324"/>
<text text-anchor="middle" x="1361.2509" y="-301.8" font-family="Times,serif" font-size="14.00" fill="#000000">(y5 - y4) * (y5 - y4)</text>
</g>
<!-- a24&#45;&gt;a36 -->
<g id="edge45" class="edge">
<title>a24-&gt;a36</title>
<path fill="none" stroke="#000000" d="M1355.2985,-359.8314C1354.5481,-352.131 1354.3272,-342.9743 1354.6358,-334.4166"/>
<polygon fill="#000000" stroke="#000000" points="1358.1301,-334.6161 1355.2749,-324.4133 1351.1444,-334.1697 1358.1301,-334.6161"/>
</g>
<!-- a24&#45;&gt;a36 -->
<g id="edge46" class="edge">
<title>a24-&gt;a36</title>
<path fill="none" stroke="#000000" d="M1367.2033,-359.8314C1367.9537,-352.131 1368.1746,-342.9743 1367.866,-334.4166"/>
<polygon fill="#000000" stroke="#000000" points="1371.3574,-334.1697 1367.2269,-324.4133 1364.3717,-334.6161 1371.3574,-334.1697"/>
</g>
<!-- a37 -->
<g id="node38" class="node">
<title>a37</title>
<polygon fill="#ffff7f" stroke="#000000" points="1717.2145,-324 1589.2873,-324 1589.2873,-288 1717.2145,-288 1717.2145,-324"/>
<text text-anchor="middle" x="1653.2509" y="-301.8" font-family="Times,serif" font-size="14.00" fill="#000000">(y6 - y5) * (y6 - y5)</text>
</g>
<!-- a25&#45;&gt;a37 -->
<g id="edge47" class="edge">
<title>a25-&gt;a37</title>
<path fill="none" stroke="#000000" d="M1647.2985,-359.8314C1646.5481,-352.131 1646.3272,-342.9743 1646.6358,-334.4166"/>
<polygon fill="#000000" stroke="#000000" points="1650.1301,-334.6161 1647.2749,-324.4133 1643.1444,-334.1697 1650.1301,-334.6161"/>
</g>
<!-- a25&#45;&gt;a37 -->
<g id="edge48" class="edge">
<title>a25-&gt;a37</title>
<path fill="none" stroke="#000000" d="M1659.2033,-359.8314C1659.9537,-352.131 1660.1746,-342.9743 1659.866,-334.4166"/>
<polygon fill="#000000" stroke="#000000" points="1663.3574,-334.1697 1659.2269,-324.4133 1656.3717,-334.6161 1663.3574,-334.1697"/>
</g>
<!-- a38 -->
<g id="node39" class="node">
<title>a38</title>
<polygon fill="#ffff7f" stroke="#000000" points="291.3939,-396 27.1079,-396 27.1079,-360 291.3939,-360 291.3939,-396"/>
<text text-anchor="middle" x="159.2509" y="-373.8" font-family="Times,serif" font-size="14.00" fill="#000000">((x1 - x0) * (x1 - x0) + (y1 - y0) * (y1 - y0))</text>
</g>
<!-- a26&#45;&gt;a38 -->
<g id="edge49" class="edge">
<title>a26-&gt;a38</title>
<path fill="none" stroke="#000000" d="M137.5688,-431.8314C140.7385,-423.9617 144.5209,-414.5712 148.0322,-405.8533"/>
<polygon fill="#000000" stroke="#000000" points="151.3448,-406.9968 151.8344,-396.4133 144.8517,-404.3815 151.3448,-406.9968"/>
</g>
<!-- a39 -->
<g id="node40" class="node">
<title>a39</title>
<polygon fill="#ffff7f" stroke="#000000" points="573.3939,-396 309.1079,-396 309.1079,-360 573.3939,-360 573.3939,-396"/>
<text text-anchor="middle" x="441.2509" y="-373.8" font-family="Times,serif" font-size="14.00" fill="#000000">((x2 - x1) * (x2 - x1) + (y2 - y1) * (y2 - y1))</text>
</g>
<!-- a27&#45;&gt;a39 -->
<g id="edge51" class="edge">
<title>a27-&gt;a39</title>
<path fill="none" stroke="#000000" d="M427.0454,-431.8314C429.0998,-424.0463 431.5469,-414.7729 433.8265,-406.1347"/>
<polygon fill="#000000" stroke="#000000" points="437.2244,-406.9753 436.3918,-396.4133 430.4561,-405.1892 437.2244,-406.9753"/>
</g>
<!-- a41 -->
<g id="node42" class="node">
<title>a41</title>
<polygon fill="#ffff7f" stroke="#000000" points="818.3939,-324 554.1079,-324 554.1079,-288 818.3939,-288 818.3939,-324"/>
<text text-anchor="middle" x="686.2509" y="-301.8" font-family="Times,serif" font-size="14.00" fill="#000000">((x3 - x2) * (x3 - x2) + (y3 - y2) * (y3 - y2))</text>
</g>
<!-- a28&#45;&gt;a41 -->
<g id="edge55" class="edge">
<title>a28-&gt;a41</title>
<path fill="none" stroke="#000000" d="M678.0267,-359.8314C679.2031,-352.131 680.602,-342.9743 681.9095,-334.4166"/>
<polygon fill="#000000" stroke="#000000" points="685.3873,-334.8272 683.4378,-324.4133 678.4676,-333.7699 685.3873,-334.8272"/>
</g>
<!-- a43 -->
<g id="node44" class="node">
<title>a43</title>
<polygon fill="#ffff7f" stroke="#000000" points="1130.3939,-252 866.1079,-252 866.1079,-216 1130.3939,-216 1130.3939,-252"/>
<text text-anchor="middle" x="998.2509" y="-229.8" font-family="Times,serif" font-size="14.00" fill="#000000">((x4 - x3) * (x4 - x3) + (y4 - y3) * (y4 - y3))</text>
</g>
<!-- a29&#45;&gt;a43 -->
<g id="edge59" class="edge">
<title>a29-&gt;a43</title>
<path fill="none" stroke="#000000" d="M942.1766,-287.8314C951.2366,-279.1337 962.2318,-268.5783 972.0774,-259.1265"/>
<polygon fill="#000000" stroke="#000000" points="974.5413,-261.613 979.3313,-252.1628 969.6935,-256.5633 974.5413,-261.613"/>
</g>
<!-- a45 -->
<g id="node46" class="node">
<title>a45</title>
<polygon fill="#ffff7f" stroke="#000000" points="1422.3939,-252 1158.1079,-252 1158.1079,-216 1422.3939,-216 1422.3939,-252"/>
<text text-anchor="middle" x="1290.2509" y="-229.8" font-family="Times,serif" font-size="14.00" fill="#000000">((x5 - x4) * (x5 - x4) + (y5 - y4) * (y5 - y4))</text>
</g>
<!-- a30&#45;&gt;a45 -->
<g id="edge63" class="edge">
<title>a30-&gt;a45</title>
<path fill="none" stroke="#000000" d="M1234.1766,-287.8314C1243.2366,-279.1337 1254.2318,-268.5783 1264.0774,-259.1265"/>
<polygon fill="#000000" stroke="#000000" points="1266.5413,-261.613 1271.3313,-252.1628 1261.6935,-256.5633 1266.5413,-261.613"/>
</g>
<!-- a47 -->
<g id="node48" class="node">
<title>a47</title>
<polygon fill="#ffff7f" stroke="#000000" points="1709.3939,-252 1445.1079,-252 1445.1079,-216 1709.3939,-216 1709.3939,-252"/>
<text text-anchor="middle" x="1577.2509" y="-229.8" font-family="Times,serif" font-size="14.00" fill="#000000">((x6 - x5) * (x6 - x5) + (y6 - y5) * (y6 - y5))</text>
</g>
<!-- a31&#45;&gt;a47 -->
<g id="edge67" class="edge">
<title>a31-&gt;a47</title>
<path fill="none" stroke="#000000" d="M1524.9149,-287.8314C1533.2241,-279.2848 1543.2773,-268.9443 1552.3427,-259.6198"/>
<polygon fill="#000000" stroke="#000000" points="1554.8878,-262.023 1559.3491,-252.4133 1549.8688,-257.1435 1554.8878,-262.023"/>
</g>
<!-- a32&#45;&gt;a38 -->
<g id="edge50" class="edge">
<title>a32-&gt;a38</title>
<path fill="none" stroke="#000000" d="M246.7269,-431.8314C231.7618,-422.6221 213.4123,-411.3301 197.3906,-401.4706"/>
<polygon fill="#000000" stroke="#000000" points="199.1164,-398.423 188.7655,-396.1628 195.4477,-404.3847 199.1164,-398.423"/>
</g>
<!-- a33&#45;&gt;a39 -->
<g id="edge52" class="edge">
<title>a33-&gt;a39</title>
<path fill="none" stroke="#000000" d="M536.2034,-431.8314C519.8089,-422.5368 499.6723,-411.1208 482.168,-401.1971"/>
<polygon fill="#000000" stroke="#000000" points="483.7135,-398.05 473.2881,-396.1628 480.2612,-404.1395 483.7135,-398.05"/>
</g>
<!-- a34&#45;&gt;a41 -->
<g id="edge56" class="edge">
<title>a34-&gt;a41</title>
<path fill="none" stroke="#000000" d="M787.1847,-359.8314C769.5976,-350.4516 747.9593,-338.9112 729.2341,-328.9244"/>
<polygon fill="#000000" stroke="#000000" points="730.7768,-325.7805 720.3062,-324.1628 727.4827,-331.957 730.7768,-325.7805"/>
</g>
<!-- a35&#45;&gt;a43 -->
<g id="edge60" class="edge">
<title>a35-&gt;a43</title>
<path fill="none" stroke="#000000" d="M1051.3346,-287.8314C1042.9067,-279.2848 1032.7099,-268.9443 1023.5149,-259.6198"/>
<polygon fill="#000000" stroke="#000000" points="1025.922,-257.0761 1016.4084,-252.4133 1020.9378,-261.9912 1025.922,-257.0761"/>
</g>
<!-- a36&#45;&gt;a45 -->
<g id="edge64" class="edge">
<title>a36-&gt;a45</title>
<path fill="none" stroke="#000000" d="M1343.3346,-287.8314C1334.9067,-279.2848 1324.7099,-268.9443 1315.5149,-259.6198"/>
<polygon fill="#000000" stroke="#000000" points="1317.922,-257.0761 1308.4084,-252.4133 1312.9378,-261.9912 1317.922,-257.0761"/>
</g>
<!-- a37&#45;&gt;a47 -->
<g id="edge68" class="edge">
<title>a37-&gt;a47</title>
<path fill="none" stroke="#000000" d="M1634.0729,-287.8314C1624.8921,-279.1337 1613.7503,-268.5783 1603.7733,-259.1265"/>
<polygon fill="#000000" stroke="#000000" points="1606.0894,-256.4995 1596.4228,-252.1628 1601.2752,-261.5811 1606.0894,-256.4995"/>
</g>
<!-- a40 -->
<g id="node41" class="node">
<title>a40</title>
<polygon fill="#ffff7f" stroke="#000000" points="536.2529,-324 .2489,-324 .2489,-288 536.2529,-288 536.2529,-324"/>
<text text-anchor="middle" x="268.2509" y="-301.8" font-family="Times,serif" font-size="14.00" fill="#000000">(((x1 - x0) * (x1 - x0) + (y1 - y0) * (y1 - y0)) + ((x2 - x1) * (x2 - x1) + (y2 - y1) * (y2 - y1)))</text>
</g>
<!-- a38&#45;&gt;a40 -->
<g id="edge53" class="edge">
<title>a38-&gt;a40</title>
<path fill="none" stroke="#000000" d="M186.7562,-359.8314C200.5689,-350.7074 217.4765,-339.539 232.3038,-329.7449"/>
<polygon fill="#000000" stroke="#000000" points="234.3395,-332.5949 240.7544,-324.1628 230.4813,-326.7541 234.3395,-332.5949"/>
</g>
<!-- a39&#45;&gt;a40 -->
<g id="edge54" class="edge">
<title>a39-&gt;a40</title>
<path fill="none" stroke="#000000" d="M397.5957,-359.8314C374.3551,-350.159 345.5941,-338.1891 321.0986,-327.9944"/>
<polygon fill="#000000" stroke="#000000" points="322.1694,-324.6491 311.5922,-324.038 319.4797,-331.1117 322.1694,-324.6491"/>
</g>
<!-- a42 -->
<g id="node43" class="node">
<title>a42</title>
<polygon fill="#ffff7f" stroke="#000000" points="847.6115,-252 38.8903,-252 38.8903,-216 847.6115,-216 847.6115,-252"/>
<text text-anchor="middle" x="443.2509" y="-229.8" font-family="Times,serif" font-size="14.00" fill="#000000">((((x1 - x0) * (x1 - x0) + (y1 - y0) * (y1 - y0)) + ((x2 - x1) * (x2 - x1) + (y2 - y1) * (y2 - y1))) + ((x3 - x2) * (x3 - x2) + (y3 - y2) * (y3 - y2)))</text>
</g>
<!-- a40&#45;&gt;a42 -->
<g id="edge57" class="edge">
<title>a40-&gt;a42</title>
<path fill="none" stroke="#000000" d="M312.4108,-287.8314C336.0241,-278.1162 365.2711,-266.0831 390.1209,-255.8592"/>
<polygon fill="#000000" stroke="#000000" points="391.4924,-259.0797 399.4086,-252.038 388.829,-252.6061 391.4924,-259.0797"/>
</g>
<!-- a41&#45;&gt;a42 -->
<g id="edge58" class="edge">
<title>a41-&gt;a42</title>
<path fill="none" stroke="#000000" d="M625.2454,-287.9243C591.4481,-277.9103 549.2665,-265.412 514.0247,-254.97"/>
<polygon fill="#000000" stroke="#000000" points="514.8638,-251.5683 504.2815,-252.0831 512.8752,-258.2799 514.8638,-251.5683"/>
</g>
<!-- a44 -->
<g id="node45" class="node">
<title>a44</title>
<polygon fill="#ffff7f" stroke="#000000" points="1261.9703,-180 180.5315,-180 180.5315,-144 1261.9703,-144 1261.9703,-180"/>
<text text-anchor="middle" x="721.2509" y="-157.8" font-family="Times,serif" font-size="14.00" fill="#000000">(((((x1 - x0) * (x1 - x0) + (y1 - y0) * (y1 - y0)) + ((x2 - x1) * (x2 - x1) + (y2 - y1) * (y2 - y1))) + ((x3 - x2) * (x3 - x2) + (y3 - y2) * (y3 - y2))) + ((x4 - x3) * (x4 - x3) + (y4 - y3) * (y4 - y3)))</text>
</g>
<!-- a42&#45;&gt;a44 -->
<g id="edge61" class="edge">
<title>a42-&gt;a44</title>
<path fill="none" stroke="#000000" d="M513.0432,-215.9243C552.1215,-205.8033 600.9978,-193.1447 641.5728,-182.6361"/>
<polygon fill="#000000" stroke="#000000" points="642.6268,-185.9786 651.4299,-180.0831 640.8717,-179.2022 642.6268,-185.9786"/>
</g>
<!-- a43&#45;&gt;a44 -->
<g id="edge62" class="edge">
<title>a43-&gt;a44</title>
<path fill="none" stroke="#000000" d="M928.7096,-215.9243C889.772,-205.8033 841.0715,-193.1447 800.6424,-182.6361"/>
<polygon fill="#000000" stroke="#000000" points="801.3797,-179.2115 790.8208,-180.0831 799.6186,-185.9863 801.3797,-179.2115"/>
</g>
<!-- a46 -->
<g id="node47" class="node">
<title>a46</title>
<polygon fill="#ffff7f" stroke="#000000" points="1548.8292,-108 195.6726,-108 195.6726,-72 1548.8292,-72 1548.8292,-108"/>
<text text-anchor="middle" x="872.2509" y="-85.8" font-family="Times,serif" font-size="14.00" fill="#000000">((((((x1 - x0) * (x1 - x0) + (y1 - y0) * (y1 - y0)) + ((x2 - x1) * (x2 - x1) + (y2 - y1) * (y2 - y1))) + ((x3 - x2) * (x3 - x2) + (y3 - y2) * (y3 - y2))) + ((x4 - x3) * (x4 - x3) + (y4 - y3) * (y4 - y3))) + ((x5 - x4) * (x5 - x4) + (y5 - y4) * (y5 - y4)))</text>
</g>
<!-- a44&#45;&gt;a46 -->
<g id="edge65" class="edge">
<title>a44-&gt;a46</title>
<path fill="none" stroke="#000000" d="M759.3546,-143.8314C779.3704,-134.2874 804.0776,-122.5065 825.2703,-112.4013"/>
<polygon fill="#000000" stroke="#000000" points="826.9012,-115.5013 834.4212,-108.038 823.8884,-109.1828 826.9012,-115.5013"/>
</g>
<!-- a45&#45;&gt;a46 -->
<g id="edge66" class="edge">
<title>a45-&gt;a46</title>
<path fill="none" stroke="#000000" d="M1292.0267,-215.8803C1292.9465,-195.3139 1290.9061,-162.2605 1271.2509,-144 1256.7649,-130.5419 1177.143,-118.4317 1092.7915,-109.1068"/>
<polygon fill="#000000" stroke="#000000" points="1093.0741,-105.6169 1082.7536,-108.0123 1092.3153,-112.5757 1093.0741,-105.6169"/>
</g>
<!-- a48 -->
<g id="node49" class="node">
<title>a48</title>
<polygon fill="#ffff7f" stroke="#000000" points="2037.1879,-36 411.3139,-36 411.3139,0 2037.1879,0 2037.1879,-36"/>
<text text-anchor="middle" x="1224.2509" y="-13.8" font-family="Times,serif" font-size="14.00" fill="#000000">(((((((x1 - x0) * (x1 - x0) + (y1 - y0) * (y1 - y0)) + ((x2 - x1) * (x2 - x1) + (y2 - y1) * (y2 - y1))) + ((x3 - x2) * (x3 - x2) + (y3 - y2) * (y3 - y2))) + ((x4 - x3) * (x4 - x3) + (y4 - y3) * (y4 - y3))) + ((x5 - x4) * (x5 - x4) + (y5 - y4) * (y5 - y4))) + ((x6 - x5) * (x6 - x5) + (y6 - y5) * (y6 - y5)))</text>
</g>
<!-- a46&#45;&gt;a48 -->
<g id="edge69" class="edge">
<title>a46-&gt;a48</title>
<path fill="none" stroke="#000000" d="M960.621,-71.9243C1011.0339,-61.6126 1074.3251,-48.6666 1126.2569,-38.0442"/>
<polygon fill="#000000" stroke="#000000" points="1127.054,-41.4537 1136.1498,-36.0207 1125.6512,-34.5957 1127.054,-41.4537"/>
</g>
<!-- a47&#45;&gt;a48 -->
<g id="edge70" class="edge">
<title>a47-&gt;a48</title>
<path fill="none" stroke="#000000" d="M1581.3821,-215.7904C1587.7801,-182.3895 1595.7525,-111.171 1558.2509,-72 1546.2967,-59.5137 1474.7159,-47.0927 1400.8716,-37.3171"/>
<polygon fill="#000000" stroke="#000000" points="1401.2859,-33.8416 1390.9167,-36.0166 1400.3791,-40.7826 1401.2859,-33.8416"/>
</g>
</g>
</svg>