<?xml version="1.0" encoding="UTF-8" standalone="no"?>
<!DOCTYPE svg PUBLIC "-//W3C//DTD SVG 1.1//EN"
 "http://www.w3.org/Graphics/SVG/1.1/DTD/svg11.dtd">
<!-- Generated by graphviz version 8.0.5 (20230430.1635)
 -->
<!-- Title: G Pages: 1 -->
<svg width="4424pt" height="233pt"
 viewBox="0.00 0.00 4424.25 233.00" xmlns="http://www.w3.org/2000/svg" xmlns:xlink="http://www.w3.org/1999/xlink">
<g id="graph0" class="graph" transform="scale(1 1) rotate(0) translate(4 229)">
<title>G</title>
<polygon fill="white" stroke="none" points="-4,4 -4,-229 4420.25,-229 4420.25,4 -4,4"/>
<!-- a0 -->
<g id="node1" class="node">
<title>a0</title>
<polygon fill="#ffff7f" stroke="black" points="54,-157 0,-157 0,-121 54,-121 54,-157"/>
<text text-anchor="middle" x="27" y="-133.57" font-family="Times New Roman,serif" font-size="14.00">x</text>
</g>
<!-- a4 -->
<g id="node5" class="node">
<title>a4</title>
<polygon fill="#ffff7f" stroke="black" points="157.75,-218 90,-218 90,-182 157.75,-182 157.75,-218"/>
<text text-anchor="middle" x="123.88" y="-194.57" font-family="Times New Roman,serif" font-size="14.00">(x &#45; mu0)</text>
</g>
<!-- a0&#45;&gt;a4 -->
<g id="edge1" class="edge">
<title>a0&#45;&gt;a4</title>
<path fill="none" stroke="black" d="M54.43,-155.99C63.92,-162.09 74.81,-169.09 85.07,-175.69"/>
<polygon fill="black" stroke="black" points="82.96,-179.14 93.26,-181.6 86.74,-173.25 82.96,-179.14"/>
</g>
<!-- a14 -->
<g id="node15" class="node">
<title>a14</title>
<polygon fill="#ffff7f" stroke="black" points="157.75,-90 90,-90 90,-54 157.75,-54 157.75,-90"/>
<text text-anchor="middle" x="123.88" y="-66.58" font-family="Times New Roman,serif" font-size="14.00">(x &#45; mu1)</text>
</g>
<!-- a0&#45;&gt;a14 -->
<g id="edge13" class="edge">
<title>a0&#45;&gt;a14</title>
<path fill="none" stroke="black" d="M54.18,-120.51C64.65,-113.12 76.87,-104.49 88.07,-96.58"/>
<polygon fill="black" stroke="black" points="89.63,-99.05 95.78,-90.43 85.6,-93.33 89.63,-99.05"/>
</g>
<!-- a1 -->
<g id="node2" class="node">
<title>a1</title>
<polygon fill="#ffff7f" stroke="black" points="54,-218 0,-218 0,-182 54,-182 54,-218"/>
<text text-anchor="middle" x="27" y="-194.57" font-family="Times New Roman,serif" font-size="14.00">mu0</text>
</g>
<!-- a1&#45;&gt;a4 -->
<g id="edge2" class="edge">
<title>a1&#45;&gt;a4</title>
<path fill="none" stroke="black" d="M54.43,-200C62.05,-200 70.58,-200 78.97,-200"/>
<polygon fill="black" stroke="black" points="78.82,-203.5 88.82,-200 78.82,-196.5 78.82,-203.5"/>
</g>
<!-- a2 -->
<g id="node3" class="node">
<title>a2</title>
<polygon fill="#ffff7f" stroke="black" points="460.12,-171 405.12,-171 405.12,-135 460.12,-135 460.12,-171"/>
<text text-anchor="middle" x="432.62" y="-147.57" font-family="Times New Roman,serif" font-size="14.00">sigma0</text>
</g>
<!-- a7 -->
<g id="node8" class="node">
<title>a7</title>
<polygon fill="#ffff7f" stroke="black" points="726.25,-217 537.75,-217 537.75,-181 726.25,-181 726.25,-217"/>
<text text-anchor="middle" x="632" y="-193.57" font-family="Times New Roman,serif" font-size="14.00">&#45;(x &#45; mu0) * (x &#45; mu0) / sigma0</text>
</g>
<!-- a2&#45;&gt;a7 -->
<g id="edge7" class="edge">
<title>a2&#45;&gt;a7</title>
<path fill="none" stroke="black" d="M460.24,-159.2C481.23,-164.1 511.79,-171.22 541.27,-178.09"/>
<polygon fill="black" stroke="black" points="540.1,-181.64 550.63,-180.5 541.69,-174.82 540.1,-181.64"/>
</g>
<!-- a8 -->
<g id="node9" class="node">
<title>a8</title>
<polygon fill="#ffff7f" stroke="black" points="1001,-198 762.25,-198 762.25,-162 1001,-162 1001,-198"/>
<text text-anchor="middle" x="881.62" y="-174.57" font-family="Times New Roman,serif" font-size="14.00">&#45;(x &#45; mu0) * (x &#45; mu0) / sigma0 / sigma0</text>
</g>
<!-- a2&#45;&gt;a8 -->
<g id="edge9" class="edge">
<title>a2&#45;&gt;a8</title>
<path fill="none" stroke="black" d="M460.58,-154.63C516.76,-158.02 649.59,-166.04 750.95,-172.17"/>
<polygon fill="black" stroke="black" points="750.71,-175.72 760.9,-172.83 751.13,-168.73 750.71,-175.72"/>
</g>
<!-- a3 -->
<g id="node4" class="node">
<title>a3</title>
<polygon fill="#ffff7f" stroke="black" points="1198,-144 1144,-144 1144,-108 1198,-108 1198,-144"/>
<text text-anchor="middle" x="1171" y="-120.58" font-family="Times New Roman,serif" font-size="14.00">scale0</text>
</g>
<!-- a10 -->
<g id="node11" class="node">
<title>a10</title>
<polygon fill="#ffff7f" stroke="black" points="1657.75,-144 1341,-144 1341,-108 1657.75,-108 1657.75,-144"/>
<text text-anchor="middle" x="1499.38" y="-120.58" font-family="Times New Roman,serif" font-size="14.00">scale0 * exp(&#45;(x &#45; mu0) * (x &#45; mu0) / sigma0 / sigma0)</text>
</g>
<!-- a3&#45;&gt;a10 -->
<g id="edge11" class="edge">
<title>a3&#45;&gt;a10</title>
<path fill="none" stroke="black" d="M1198.43,-126C1228.04,-126 1278.65,-126 1329.94,-126"/>
<polygon fill="black" stroke="black" points="1329.89,-129.5 1339.89,-126 1329.89,-122.5 1329.89,-129.5"/>
</g>
<!-- a5 -->
<g id="node6" class="node">
<title>a5</title>
<polygon fill="#ffff7f" stroke="black" points="327.5,-218 193.75,-218 193.75,-182 327.5,-182 327.5,-218"/>
<text text-anchor="middle" x="260.62" y="-194.57" font-family="Times New Roman,serif" font-size="14.00">(x &#45; mu0) * (x &#45; mu0)</text>
</g>
<!-- a4&#45;&gt;a5 -->
<g id="edge3" class="edge">
<title>a4&#45;&gt;a5</title>
<path fill="none" stroke="black" d="M158.18,-194.08C165.69,-193.68 173.96,-193.43 182.45,-193.31"/>
<polygon fill="black" stroke="black" points="182.29,-196.81 192.27,-193.25 182.25,-189.81 182.29,-196.81"/>
</g>
<!-- a4&#45;&gt;a5 -->
<g id="edge4" class="edge">
<title>a4&#45;&gt;a5</title>
<path fill="none" stroke="black" d="M158.18,-205.92C165.69,-206.32 173.96,-206.57 182.45,-206.69"/>
<polygon fill="black" stroke="black" points="182.25,-210.19 192.27,-206.75 182.29,-203.19 182.25,-210.19"/>
</g>
<!-- a6 -->
<g id="node7" class="node">
<title>a6</title>
<polygon fill="#ffff7f" stroke="black" points="501.75,-225 363.5,-225 363.5,-189 501.75,-189 501.75,-225"/>
<text text-anchor="middle" x="432.62" y="-201.57" font-family="Times New Roman,serif" font-size="14.00">&#45;(x &#45; mu0) * (x &#45; mu0)</text>
</g>
<!-- a5&#45;&gt;a6 -->
<g id="edge5" class="edge">
<title>a5&#45;&gt;a6</title>
<path fill="none" stroke="black" d="M327.84,-202.73C335.88,-203.06 344.15,-203.4 352.35,-203.74"/>
<polygon fill="black" stroke="black" points="351.93,-207.26 362.07,-204.18 352.22,-200.27 351.93,-207.26"/>
</g>
<!-- a6&#45;&gt;a7 -->
<g id="edge6" class="edge">
<title>a6&#45;&gt;a7</title>
<path fill="none" stroke="black" d="M502.1,-204.22C510,-203.9 518.18,-203.57 526.42,-203.24"/>
<polygon fill="black" stroke="black" points="526.41,-206.7 536.26,-202.8 526.13,-199.71 526.41,-206.7"/>
</g>
<!-- a7&#45;&gt;a8 -->
<g id="edge8" class="edge">
<title>a7&#45;&gt;a8</title>
<path fill="none" stroke="black" d="M726.62,-191.82C734.62,-191.2 742.79,-190.58 751.01,-189.95"/>
<polygon fill="black" stroke="black" points="751.11,-193.37 760.81,-189.12 750.57,-186.39 751.11,-193.37"/>
</g>
<!-- a9 -->
<g id="node10" class="node">
<title>a9</title>
<polygon fill="#ffff7f" stroke="black" points="1305,-198 1037,-198 1037,-162 1305,-162 1305,-198"/>
<text text-anchor="middle" x="1171" y="-174.57" font-family="Times New Roman,serif" font-size="14.00">exp(&#45;(x &#45; mu0) * (x &#45; mu0) / sigma0 / sigma0)</text>
</g>
<!-- a8&#45;&gt;a9 -->
<g id="edge10" class="edge">
<title>a8&#45;&gt;a9</title>
<path fill="none" stroke="black" d="M1001.17,-180C1009.34,-180 1017.62,-180 1025.91,-180"/>
<polygon fill="black" stroke="black" points="1025.79,-183.5 1035.79,-180 1025.79,-176.5 1025.79,-183.5"/>
</g>
<!-- a9&#45;&gt;a10 -->
<g id="edge12" class="edge">
<title>a9&#45;&gt;a10</title>
<path fill="none" stroke="black" d="M1283.41,-161.57C1313.22,-156.63 1345.61,-151.28 1375.99,-146.25"/>
<polygon fill="black" stroke="black" points="1376.34,-149.57 1385.64,-144.49 1375.2,-142.67 1376.34,-149.57"/>
</g>
<!-- a21 -->
<g id="node22" class="node">
<title>a21</title>
<polygon fill="#ffff7f" stroke="black" points="2336,-117 1693.75,-117 1693.75,-81 2336,-81 2336,-117"/>
<text text-anchor="middle" x="2014.88" y="-93.58" font-family="Times New Roman,serif" font-size="14.00">(scale0 * exp(&#45;(x &#45; mu0) * (x &#45; mu0) / sigma0 / sigma0) + scale1 * exp(&#45;(x &#45; mu1) * (x &#45; mu1) / sigma1 / sigma1))</text>
</g>
<!-- a10&#45;&gt;a21 -->
<g id="edge25" class="edge">
<title>a10&#45;&gt;a21</title>
<path fill="none" stroke="black" d="M1657.93,-117.72C1665.93,-117.3 1674.07,-116.87 1682.33,-116.43"/>
<polygon fill="black" stroke="black" points="1682.45,-119.88 1692.25,-115.86 1682.08,-112.89 1682.45,-119.88"/>
</g>
<!-- a11 -->
<g id="node12" class="node">
<title>a11</title>
<polygon fill="#ffff7f" stroke="black" points="54,-90 0,-90 0,-54 54,-54 54,-90"/>
<text text-anchor="middle" x="27" y="-66.58" font-family="Times New Roman,serif" font-size="14.00">mu1</text>
</g>
<!-- a11&#45;&gt;a14 -->
<g id="edge14" class="edge">
<title>a11&#45;&gt;a14</title>
<path fill="none" stroke="black" d="M54.43,-72C62.05,-72 70.58,-72 78.97,-72"/>
<polygon fill="black" stroke="black" points="78.82,-75.5 88.82,-72 78.82,-68.5 78.82,-75.5"/>
</g>
<!-- a12 -->
<g id="node13" class="node">
<title>a12</title>
<polygon fill="#ffff7f" stroke="black" points="460.12,-117 405.12,-117 405.12,-81 460.12,-81 460.12,-117"/>
<text text-anchor="middle" x="432.62" y="-93.58" font-family="Times New Roman,serif" font-size="14.00">sigma1</text>
</g>
<!-- a17 -->
<g id="node18" class="node">
<title>a17</title>
<polygon fill="#ffff7f" stroke="black" points="726.25,-71 537.75,-71 537.75,-35 726.25,-35 726.25,-71"/>
<text text-anchor="middle" x="632" y="-47.58" font-family="Times New Roman,serif" font-size="14.00">&#45;(x &#45; mu1) * (x &#45; mu1) / sigma1</text>
</g>
<!-- a12&#45;&gt;a17 -->
<g id="edge19" class="edge">
<title>a12&#45;&gt;a17</title>
<path fill="none" stroke="black" d="M460.24,-92.8C481.23,-87.9 511.79,-80.78 541.27,-73.91"/>
<polygon fill="black" stroke="black" points="541.69,-77.18 550.63,-71.5 540.1,-70.36 541.69,-77.18"/>
</g>
<!-- a18 -->
<g id="node19" class="node">
<title>a18</title>
<polygon fill="#ffff7f" stroke="black" points="1001,-90 762.25,-90 762.25,-54 1001,-54 1001,-90"/>
<text text-anchor="middle" x="881.62" y="-66.58" font-family="Times New Roman,serif" font-size="14.00">&#45;(x &#45; mu1) * (x &#45; mu1) / sigma1 / sigma1</text>
</g>
<!-- a12&#45;&gt;a18 -->
<g id="edge21" class="edge">
<title>a12&#45;&gt;a18</title>
<path fill="none" stroke="black" d="M460.58,-97.37C516.76,-93.98 649.59,-85.96 750.95,-79.83"/>
<polygon fill="black" stroke="black" points="751.13,-83.27 760.9,-79.17 750.71,-76.28 751.13,-83.27"/>
</g>
<!-- a13 -->
<g id="node14" class="node">
<title>a13</title>
<polygon fill="#ffff7f" stroke="black" points="1198,-36 1144,-36 1144,0 1198,0 1198,-36"/>
<text text-anchor="middle" x="1171" y="-12.57" font-family="Times New Roman,serif" font-size="14.00">scale1</text>
</g>
<!-- a20 -->
<g id="node21" class="node">
<title>a20</title>
<polygon fill="#ffff7f" stroke="black" points="1657.75,-90 1341,-90 1341,-54 1657.75,-54 1657.75,-90"/>
<text text-anchor="middle" x="1499.38" y="-66.58" font-family="Times New Roman,serif" font-size="14.00">scale1 * exp(&#45;(x &#45; mu1) * (x &#45; mu1) / sigma1 / sigma1)</text>
</g>
<!-- a13&#45;&gt;a20 -->
<g id="edge23" class="edge">
<title>a13&#45;&gt;a20</title>
<path fill="none" stroke="black" d="M1198.43,-22.37C1236.96,-28.75 1311.02,-41 1375.91,-51.74"/>
<polygon fill="black" stroke="black" points="1375.21,-55.34 1385.65,-53.51 1376.36,-48.43 1375.21,-55.34"/>
</g>
<!-- a15 -->
<g id="node16" class="node">
<title>a15</title>
<polygon fill="#ffff7f" stroke="black" points="327.5,-90 193.75,-90 193.75,-54 327.5,-54 327.5,-90"/>
<text text-anchor="middle" x="260.62" y="-66.58" font-family="Times New Roman,serif" font-size="14.00">(x &#45; mu1) * (x &#45; mu1)</text>
</g>
<!-- a14&#45;&gt;a15 -->
<g id="edge15" class="edge">
<title>a14&#45;&gt;a15</title>
<path fill="none" stroke="black" d="M158.18,-66.08C165.69,-65.68 173.96,-65.43 182.45,-65.31"/>
<polygon fill="black" stroke="black" points="182.29,-68.81 192.27,-65.25 182.25,-61.81 182.29,-68.81"/>
</g>
<!-- a14&#45;&gt;a15 -->
<g id="edge16" class="edge">
<title>a14&#45;&gt;a15</title>
<path fill="none" stroke="black" d="M158.18,-77.92C165.69,-78.32 173.96,-78.57 182.45,-78.69"/>
<polygon fill="black" stroke="black" points="182.25,-82.19 192.27,-78.75 182.29,-75.19 182.25,-82.19"/>
</g>
<!-- a16 -->
<g id="node17" class="node">
<title>a16</title>
<polygon fill="#ffff7f" stroke="black" points="501.75,-63 363.5,-63 363.5,-27 501.75,-27 501.75,-63"/>
<text text-anchor="middle" x="432.62" y="-39.58" font-family="Times New Roman,serif" font-size="14.00">&#45;(x &#45; mu1) * (x &#45; mu1)</text>
</g>
<!-- a15&#45;&gt;a16 -->
<g id="edge17" class="edge">
<title>a15&#45;&gt;a16</title>
<path fill="none" stroke="black" d="M327.84,-61.48C335.88,-60.21 344.15,-58.89 352.35,-57.59"/>
<polygon fill="black" stroke="black" points="352.74,-60.91 362.07,-55.89 351.64,-54 352.74,-60.91"/>
</g>
<!-- a16&#45;&gt;a17 -->
<g id="edge18" class="edge">
<title>a16&#45;&gt;a17</title>
<path fill="none" stroke="black" d="M502.1,-47.78C510,-48.1 518.18,-48.43 526.42,-48.76"/>
<polygon fill="black" stroke="black" points="526.13,-52.29 536.26,-49.2 526.41,-45.3 526.13,-52.29"/>
</g>
<!-- a17&#45;&gt;a18 -->
<g id="edge20" class="edge">
<title>a17&#45;&gt;a18</title>
<path fill="none" stroke="black" d="M726.62,-60.18C734.62,-60.8 742.79,-61.42 751.01,-62.05"/>
<polygon fill="black" stroke="black" points="750.57,-65.61 760.81,-62.88 751.11,-58.63 750.57,-65.61"/>
</g>
<!-- a19 -->
<g id="node20" class="node">
<title>a19</title>
<polygon fill="#ffff7f" stroke="black" points="1305,-90 1037,-90 1037,-54 1305,-54 1305,-90"/>
<text text-anchor="middle" x="1171" y="-66.58" font-family="Times New Roman,serif" font-size="14.00">exp(&#45;(x &#45; mu1) * (x &#45; mu1) / sigma1 / sigma1)</text>
</g>
<!-- a18&#45;&gt;a19 -->
<g id="edge22" class="edge">
<title>a18&#45;&gt;a19</title>
<path fill="none" stroke="black" d="M1001.17,-72C1009.34,-72 1017.62,-72 1025.91,-72"/>
<polygon fill="black" stroke="black" points="1025.79,-75.5 1035.79,-72 1025.79,-68.5 1025.79,-75.5"/>
</g>
<!-- a19&#45;&gt;a20 -->
<g id="edge24" class="edge">
<title>a19&#45;&gt;a20</title>
<path fill="none" stroke="black" d="M1305.22,-72C1313.31,-72 1321.5,-72 1329.71,-72"/>
<polygon fill="black" stroke="black" points="1329.5,-75.5 1339.5,-72 1329.5,-68.5 1329.5,-75.5"/>
</g>
<!-- a20&#45;&gt;a21 -->
<g id="edge26" class="edge">
<title>a20&#45;&gt;a21</title>
<path fill="none" stroke="black" d="M1657.93,-80.28C1665.93,-80.7 1674.07,-81.13 1682.33,-81.57"/>
<polygon fill="black" stroke="black" points="1682.08,-85.11 1692.25,-82.14 1682.45,-78.12 1682.08,-85.11"/>
</g>
<!-- a23 -->
<g id="node24" class="node">
<title>a23</title>
<polygon fill="#7fff7f" stroke="black" points="3042,-90 2372,-90 2372,-54 3042,-54 3042,-90"/>
<text text-anchor="middle" x="2707" y="-66.58" font-family="Times New Roman,serif" font-size="14.00">((scale0 * exp(&#45;(x &#45; mu0) * (x &#45; mu0) / sigma0 / sigma0) + scale1 * exp(&#45;(x &#45; mu1) * (x &#45; mu1) / sigma1 / sigma1)) &#45; y)</text>
</g>
<!-- a21&#45;&gt;a23 -->
<g id="edge27" class="edge">
<title>a21&#45;&gt;a23</title>
<path fill="none" stroke="black" d="M2336.44,-86.46C2344.58,-86.14 2352.74,-85.82 2360.9,-85.5"/>
<polygon fill="black" stroke="black" points="2360.77,-88.97 2370.63,-85.08 2360.5,-81.98 2360.77,-88.97"/>
</g>
<!-- a22 -->
<g id="node23" class="node">
<title>a22</title>
<polygon fill="#7fff7f" stroke="black" points="2041.88,-63 1987.88,-63 1987.88,-27 2041.88,-27 2041.88,-63"/>
<text text-anchor="middle" x="2014.88" y="-39.58" font-family="Times New Roman,serif" font-size="14.00">y</text>
</g>
<!-- a22&#45;&gt;a23 -->
<g id="edge28" class="edge">
<title>a22&#45;&gt;a23</title>
<path fill="none" stroke="black" d="M2042.09,-46.03C2096.74,-48.16 2228.81,-53.33 2360.88,-58.5"/>
<polygon fill="black" stroke="black" points="2360.48,-62.02 2370.61,-58.92 2360.76,-55.03 2360.48,-62.02"/>
</g>
<!-- a24 -->
<g id="node25" class="node">
<title>a24</title>
<polygon fill="#7fff7f" stroke="black" points="4416.25,-90 3078,-90 3078,-54 4416.25,-54 4416.25,-90"/>
<text text-anchor="middle" x="3747.12" y="-66.58" font-family="Times New Roman,serif" font-size="14.00">((scale0 * exp(&#45;(x &#45; mu0) * (x &#45; mu0) / sigma0 / sigma0) + scale1 * exp(&#45;(x &#45; mu1) * (x &#45; mu1) / sigma1 / sigma1)) &#45; y) * ((scale0 * exp(&#45;(x &#45; mu0) * (x &#45; mu0) / sigma0 / sigma0) + scale1 * exp(&#45;(x &#45; mu1) * (x &#45; mu1) / sigma1 / sigma1)) &#45; y)</text>
</g>
<!-- a23&#45;&gt;a24 -->
<g id="edge29" class="edge">
<title>a23&#45;&gt;a24</title>
<path fill="none" stroke="black" d="M3042.18,-65.65C3050.32,-65.61 3058.53,-65.58 3066.8,-65.54"/>
<polygon fill="black" stroke="black" points="3066.72,-69.04 3076.71,-65.5 3066.69,-62.04 3066.72,-69.04"/>
</g>
<!-- a23&#45;&gt;a24 -->
<g id="edge30" class="edge">
<title>a23&#45;&gt;a24</title>
<path fill="none" stroke="black" d="M3042.18,-78.35C3050.32,-78.39 3058.53,-78.42 3066.8,-78.46"/>
<polygon fill="black" stroke="black" points="3066.69,-81.96 3076.71,-78.5 3066.72,-74.96 3066.69,-81.96"/>
</g>
</g>
</svg>
